ISO-10303-21;
HEADER;
/* Generated by software containing ST-Developer
 * from STEP Tools, Inc. (www.steptools.com) 
 */

FILE_DESCRIPTION(
/* description */ (''),
/* implementation_level */ '2;1');

FILE_NAME(
/* name */ 
'22GHzDsg_R3.0_no_seperate_usb_flap_v1.2_solid_model_bottom.step',
/* time_stamp */ '2025-08-19T15:14:34+03:00',
/* author */ (''),
/* organization */ (''),
/* preprocessor_version */ 'ST-DEVELOPER v20.1',
/* originating_system */ 'Autodesk Translation Framework v14.10.0.0',
/* authorisation */ '');

FILE_SCHEMA (('AUTOMOTIVE_DESIGN { 1 0 10303 214 3 1 1 }'));
ENDSEC;

DATA;
#10=MECHANICAL_DESIGN_GEOMETRIC_PRESENTATION_REPRESENTATION('',(#13),#1567);
#11=SHAPE_REPRESENTATION_RELATIONSHIP('SRR','None',#1573,#12);
#12=ADVANCED_BREP_SHAPE_REPRESENTATION('',(#14),#1566);
#13=STYLED_ITEM('',(#1582),#14);
#14=MANIFOLD_SOLID_BREP('Body2',#961);
#15=CYLINDRICAL_SURFACE('',#980,1.25);
#16=CYLINDRICAL_SURFACE('',#982,1.25);
#17=CYLINDRICAL_SURFACE('',#984,1.25);
#18=CYLINDRICAL_SURFACE('',#1004,3.175);
#19=CYLINDRICAL_SURFACE('',#1011,3.175);
#20=CYLINDRICAL_SURFACE('',#1015,1.25);
#21=CYLINDRICAL_SURFACE('',#1016,1.25);
#22=CYLINDRICAL_SURFACE('',#1017,1.25);
#23=CYLINDRICAL_SURFACE('',#1025,3.175);
#24=CYLINDRICAL_SURFACE('',#1036,3.175);
#25=CONICAL_SURFACE('',#967,1.825,0.785398163397448);
#26=CONICAL_SURFACE('',#970,1.825,0.785398163397448);
#27=CONICAL_SURFACE('',#973,1.825,0.785398163397448);
#28=CONICAL_SURFACE('',#989,1.825,0.785398163397448);
#29=CONICAL_SURFACE('',#992,1.825,0.785398163397448);
#30=CONICAL_SURFACE('',#995,1.825,0.785398163397448);
#31=CIRCLE('',#964,1.25);
#32=CIRCLE('',#965,1.25);
#33=CIRCLE('',#966,1.25);
#34=CIRCLE('',#968,1.8);
#35=CIRCLE('',#969,1.25);
#36=CIRCLE('',#971,1.8);
#37=CIRCLE('',#972,1.25);
#38=CIRCLE('',#974,1.8);
#39=CIRCLE('',#975,1.25);
#40=CIRCLE('',#981,1.25);
#41=CIRCLE('',#983,1.25);
#42=CIRCLE('',#985,1.25);
#43=CIRCLE('',#990,1.8);
#44=CIRCLE('',#991,1.25);
#45=CIRCLE('',#993,1.8);
#46=CIRCLE('',#994,1.25);
#47=CIRCLE('',#996,1.8);
#48=CIRCLE('',#997,1.25);
#49=CIRCLE('',#1005,3.175);
#50=CIRCLE('',#1006,3.175);
#51=CIRCLE('',#1012,3.175);
#52=CIRCLE('',#1013,3.175);
#53=CIRCLE('',#1023,3.175);
#54=CIRCLE('',#1026,3.175);
#55=CIRCLE('',#1027,3.175);
#56=CIRCLE('',#1035,3.175);
#57=FACE_BOUND('',#122,.T.);
#58=FACE_BOUND('',#123,.T.);
#59=FACE_BOUND('',#124,.T.);
#60=FACE_BOUND('',#125,.T.);
#61=FACE_BOUND('',#144,.T.);
#62=FACE_BOUND('',#145,.T.);
#63=FACE_BOUND('',#146,.T.);
#64=FACE_BOUND('',#147,.T.);
#65=FACE_BOUND('',#148,.T.);
#66=FACE_BOUND('',#149,.T.);
#67=FACE_BOUND('',#150,.T.);
#68=FACE_BOUND('',#158,.T.);
#69=FACE_BOUND('',#161,.T.);
#70=FACE_BOUND('',#162,.T.);
#71=FACE_BOUND('',#163,.T.);
#72=FACE_OUTER_BOUND('',#121,.T.);
#73=FACE_OUTER_BOUND('',#126,.T.);
#74=FACE_OUTER_BOUND('',#127,.T.);
#75=FACE_OUTER_BOUND('',#128,.T.);
#76=FACE_OUTER_BOUND('',#129,.T.);
#77=FACE_OUTER_BOUND('',#130,.T.);
#78=FACE_OUTER_BOUND('',#131,.T.);
#79=FACE_OUTER_BOUND('',#132,.T.);
#80=FACE_OUTER_BOUND('',#133,.T.);
#81=FACE_OUTER_BOUND('',#134,.T.);
#82=FACE_OUTER_BOUND('',#135,.T.);
#83=FACE_OUTER_BOUND('',#136,.T.);
#84=FACE_OUTER_BOUND('',#137,.T.);
#85=FACE_OUTER_BOUND('',#138,.T.);
#86=FACE_OUTER_BOUND('',#139,.T.);
#87=FACE_OUTER_BOUND('',#140,.T.);
#88=FACE_OUTER_BOUND('',#141,.T.);
#89=FACE_OUTER_BOUND('',#142,.T.);
#90=FACE_OUTER_BOUND('',#143,.T.);
#91=FACE_OUTER_BOUND('',#151,.T.);
#92=FACE_OUTER_BOUND('',#152,.T.);
#93=FACE_OUTER_BOUND('',#153,.T.);
#94=FACE_OUTER_BOUND('',#154,.T.);
#95=FACE_OUTER_BOUND('',#155,.T.);
#96=FACE_OUTER_BOUND('',#156,.T.);
#97=FACE_OUTER_BOUND('',#157,.T.);
#98=FACE_OUTER_BOUND('',#159,.T.);
#99=FACE_OUTER_BOUND('',#160,.T.);
#100=FACE_OUTER_BOUND('',#164,.T.);
#101=FACE_OUTER_BOUND('',#165,.T.);
#102=FACE_OUTER_BOUND('',#166,.T.);
#103=FACE_OUTER_BOUND('',#167,.T.);
#104=FACE_OUTER_BOUND('',#168,.T.);
#105=FACE_OUTER_BOUND('',#169,.T.);
#106=FACE_OUTER_BOUND('',#170,.T.);
#107=FACE_OUTER_BOUND('',#171,.T.);
#108=FACE_OUTER_BOUND('',#172,.T.);
#109=FACE_OUTER_BOUND('',#173,.T.);
#110=FACE_OUTER_BOUND('',#174,.T.);
#111=FACE_OUTER_BOUND('',#175,.T.);
#112=FACE_OUTER_BOUND('',#176,.T.);
#113=FACE_OUTER_BOUND('',#177,.T.);
#114=FACE_OUTER_BOUND('',#178,.T.);
#115=FACE_OUTER_BOUND('',#179,.T.);
#116=FACE_OUTER_BOUND('',#180,.T.);
#117=FACE_OUTER_BOUND('',#181,.T.);
#118=FACE_OUTER_BOUND('',#182,.T.);
#119=FACE_OUTER_BOUND('',#183,.T.);
#120=FACE_OUTER_BOUND('',#184,.T.);
#121=EDGE_LOOP('',(#615,#616,#617,#618,#619,#620,#621,#622,#623,#624,#625,
#626));
#122=EDGE_LOOP('',(#627,#628,#629,#630));
#123=EDGE_LOOP('',(#631));
#124=EDGE_LOOP('',(#632));
#125=EDGE_LOOP('',(#633));
#126=EDGE_LOOP('',(#634,#635,#636,#637));
#127=EDGE_LOOP('',(#638,#639,#640,#641));
#128=EDGE_LOOP('',(#642,#643,#644,#645));
#129=EDGE_LOOP('',(#646,#647,#648,#649));
#130=EDGE_LOOP('',(#650,#651,#652,#653));
#131=EDGE_LOOP('',(#654,#655,#656,#657));
#132=EDGE_LOOP('',(#658,#659,#660,#661));
#133=EDGE_LOOP('',(#662,#663,#664,#665));
#134=EDGE_LOOP('',(#666,#667,#668,#669));
#135=EDGE_LOOP('',(#670,#671,#672,#673));
#136=EDGE_LOOP('',(#674,#675,#676,#677));
#137=EDGE_LOOP('',(#678,#679,#680,#681));
#138=EDGE_LOOP('',(#682,#683,#684,#685));
#139=EDGE_LOOP('',(#686,#687,#688,#689));
#140=EDGE_LOOP('',(#690,#691,#692,#693));
#141=EDGE_LOOP('',(#694,#695,#696,#697));
#142=EDGE_LOOP('',(#698,#699,#700,#701));
#143=EDGE_LOOP('',(#702,#703,#704,#705));
#144=EDGE_LOOP('',(#706));
#145=EDGE_LOOP('',(#707));
#146=EDGE_LOOP('',(#708));
#147=EDGE_LOOP('',(#709));
#148=EDGE_LOOP('',(#710));
#149=EDGE_LOOP('',(#711));
#150=EDGE_LOOP('',(#712,#713,#714,#715));
#151=EDGE_LOOP('',(#716,#717,#718,#719));
#152=EDGE_LOOP('',(#720,#721,#722,#723));
#153=EDGE_LOOP('',(#724,#725,#726,#727,#728,#729,#730,#731,#732,#733,#734,
#735));
#154=EDGE_LOOP('',(#736,#737,#738,#739));
#155=EDGE_LOOP('',(#740,#741,#742,#743));
#156=EDGE_LOOP('',(#744,#745,#746,#747));
#157=EDGE_LOOP('',(#748,#749,#750,#751));
#158=EDGE_LOOP('',(#752,#753,#754,#755));
#159=EDGE_LOOP('',(#756,#757,#758,#759));
#160=EDGE_LOOP('',(#760,#761,#762,#763,#764,#765,#766,#767,#768,#769,#770,
#771));
#161=EDGE_LOOP('',(#772));
#162=EDGE_LOOP('',(#773));
#163=EDGE_LOOP('',(#774));
#164=EDGE_LOOP('',(#775,#776,#777,#778));
#165=EDGE_LOOP('',(#779,#780,#781,#782));
#166=EDGE_LOOP('',(#783,#784,#785,#786));
#167=EDGE_LOOP('',(#787,#788,#789,#790));
#168=EDGE_LOOP('',(#791,#792,#793,#794));
#169=EDGE_LOOP('',(#795,#796,#797,#798,#799,#800));
#170=EDGE_LOOP('',(#801,#802,#803,#804));
#171=EDGE_LOOP('',(#805,#806,#807,#808,#809,#810));
#172=EDGE_LOOP('',(#811,#812,#813,#814));
#173=EDGE_LOOP('',(#815,#816,#817,#818,#819,#820,#821,#822));
#174=EDGE_LOOP('',(#823,#824,#825,#826));
#175=EDGE_LOOP('',(#827,#828,#829,#830));
#176=EDGE_LOOP('',(#831,#832,#833,#834,#835,#836,#837,#838));
#177=EDGE_LOOP('',(#839,#840,#841,#842));
#178=EDGE_LOOP('',(#843,#844,#845,#846));
#179=EDGE_LOOP('',(#847,#848,#849,#850));
#180=EDGE_LOOP('',(#851,#852,#853,#854));
#181=EDGE_LOOP('',(#855,#856,#857,#858));
#182=EDGE_LOOP('',(#859,#860,#861,#862,#863,#864,#865,#866));
#183=EDGE_LOOP('',(#867,#868,#869,#870));
#184=EDGE_LOOP('',(#871,#872,#873,#874,#875,#876,#877,#878));
#185=LINE('',#1300,#291);
#186=LINE('',#1302,#292);
#187=LINE('',#1304,#293);
#188=LINE('',#1306,#294);
#189=LINE('',#1308,#295);
#190=LINE('',#1310,#296);
#191=LINE('',#1312,#297);
#192=LINE('',#1314,#298);
#193=LINE('',#1316,#299);
#194=LINE('',#1318,#300);
#195=LINE('',#1320,#301);
#196=LINE('',#1321,#302);
#197=LINE('',#1324,#303);
#198=LINE('',#1326,#304);
#199=LINE('',#1328,#305);
#200=LINE('',#1329,#306);
#201=LINE('',#1340,#307);
#202=LINE('',#1346,#308);
#203=LINE('',#1352,#309);
#204=LINE('',#1357,#310);
#205=LINE('',#1359,#311);
#206=LINE('',#1361,#312);
#207=LINE('',#1362,#313);
#208=LINE('',#1365,#314);
#209=LINE('',#1367,#315);
#210=LINE('',#1368,#316);
#211=LINE('',#1371,#317);
#212=LINE('',#1373,#318);
#213=LINE('',#1374,#319);
#214=LINE('',#1376,#320);
#215=LINE('',#1377,#321);
#216=LINE('',#1380,#322);
#217=LINE('',#1384,#323);
#218=LINE('',#1388,#324);
#219=LINE('',#1393,#325);
#220=LINE('',#1395,#326);
#221=LINE('',#1397,#327);
#222=LINE('',#1398,#328);
#223=LINE('',#1401,#329);
#224=LINE('',#1403,#330);
#225=LINE('',#1404,#331);
#226=LINE('',#1407,#332);
#227=LINE('',#1409,#333);
#228=LINE('',#1410,#334);
#229=LINE('',#1415,#335);
#230=LINE('',#1421,#336);
#231=LINE('',#1427,#337);
#232=LINE('',#1432,#338);
#233=LINE('',#1434,#339);
#234=LINE('',#1436,#340);
#235=LINE('',#1437,#341);
#236=LINE('',#1440,#342);
#237=LINE('',#1442,#343);
#238=LINE('',#1443,#344);
#239=LINE('',#1446,#345);
#240=LINE('',#1448,#346);
#241=LINE('',#1449,#347);
#242=LINE('',#1452,#348);
#243=LINE('',#1454,#349);
#244=LINE('',#1455,#350);
#245=LINE('',#1458,#351);
#246=LINE('',#1460,#352);
#247=LINE('',#1462,#353);
#248=LINE('',#1464,#354);
#249=LINE('',#1466,#355);
#250=LINE('',#1468,#356);
#251=LINE('',#1470,#357);
#252=LINE('',#1471,#358);
#253=LINE('',#1474,#359);
#254=LINE('',#1475,#360);
#255=LINE('',#1481,#361);
#256=LINE('',#1484,#362);
#257=LINE('',#1487,#363);
#258=LINE('',#1489,#364);
#259=LINE('',#1490,#365);
#260=LINE('',#1494,#366);
#261=LINE('',#1496,#367);
#262=LINE('',#1498,#368);
#263=LINE('',#1499,#369);
#264=LINE('',#1503,#370);
#265=LINE('',#1504,#371);
#266=LINE('',#1505,#372);
#267=LINE('',#1507,#373);
#268=LINE('',#1509,#374);
#269=LINE('',#1511,#375);
#270=LINE('',#1512,#376);
#271=LINE('',#1513,#377);
#272=LINE('',#1518,#378);
#273=LINE('',#1522,#379);
#274=LINE('',#1524,#380);
#275=LINE('',#1525,#381);
#276=LINE('',#1527,#382);
#277=LINE('',#1529,#383);
#278=LINE('',#1531,#384);
#279=LINE('',#1533,#385);
#280=LINE('',#1534,#386);
#281=LINE('',#1536,#387);
#282=LINE('',#1538,#388);
#283=LINE('',#1542,#389);
#284=LINE('',#1544,#390);
#285=LINE('',#1549,#391);
#286=LINE('',#1551,#392);
#287=LINE('',#1553,#393);
#288=LINE('',#1555,#394);
#289=LINE('',#1557,#395);
#290=LINE('',#1559,#396);
#291=VECTOR('',#1042,1.);
#292=VECTOR('',#1043,1.);
#293=VECTOR('',#1044,1.);
#294=VECTOR('',#1045,1.);
#295=VECTOR('',#1046,1.);
#296=VECTOR('',#1047,1.);
#297=VECTOR('',#1048,1.);
#298=VECTOR('',#1049,1.);
#299=VECTOR('',#1050,1.);
#300=VECTOR('',#1051,1.);
#301=VECTOR('',#1052,1.);
#302=VECTOR('',#1053,1.);
#303=VECTOR('',#1054,1.);
#304=VECTOR('',#1055,1.);
#305=VECTOR('',#1056,1.);
#306=VECTOR('',#1057,1.);
#307=VECTOR('',#1068,1.825);
#308=VECTOR('',#1075,1.825);
#309=VECTOR('',#1082,1.825);
#310=VECTOR('',#1087,1.);
#311=VECTOR('',#1088,1.);
#312=VECTOR('',#1089,1.);
#313=VECTOR('',#1090,1.);
#314=VECTOR('',#1093,1.);
#315=VECTOR('',#1094,1.);
#316=VECTOR('',#1095,1.);
#317=VECTOR('',#1098,1.);
#318=VECTOR('',#1099,1.);
#319=VECTOR('',#1100,1.);
#320=VECTOR('',#1103,1.);
#321=VECTOR('',#1104,1.);
#322=VECTOR('',#1107,1.25);
#323=VECTOR('',#1112,1.25);
#324=VECTOR('',#1117,1.25);
#325=VECTOR('',#1122,1.);
#326=VECTOR('',#1123,1.);
#327=VECTOR('',#1124,1.);
#328=VECTOR('',#1125,1.);
#329=VECTOR('',#1128,1.);
#330=VECTOR('',#1129,1.);
#331=VECTOR('',#1130,1.);
#332=VECTOR('',#1133,1.);
#333=VECTOR('',#1134,1.);
#334=VECTOR('',#1135,1.);
#335=VECTOR('',#1140,1.825);
#336=VECTOR('',#1147,1.825);
#337=VECTOR('',#1154,1.825);
#338=VECTOR('',#1159,1.);
#339=VECTOR('',#1160,1.);
#340=VECTOR('',#1161,1.);
#341=VECTOR('',#1162,1.);
#342=VECTOR('',#1165,1.);
#343=VECTOR('',#1166,1.);
#344=VECTOR('',#1167,1.);
#345=VECTOR('',#1170,1.);
#346=VECTOR('',#1171,1.);
#347=VECTOR('',#1172,1.);
#348=VECTOR('',#1175,1.);
#349=VECTOR('',#1176,1.);
#350=VECTOR('',#1177,1.);
#351=VECTOR('',#1180,1.);
#352=VECTOR('',#1181,1.);
#353=VECTOR('',#1182,1.);
#354=VECTOR('',#1183,1.);
#355=VECTOR('',#1184,1.);
#356=VECTOR('',#1185,1.);
#357=VECTOR('',#1186,1.);
#358=VECTOR('',#1187,1.);
#359=VECTOR('',#1190,1.);
#360=VECTOR('',#1191,1.);
#361=VECTOR('',#1196,1.);
#362=VECTOR('',#1199,1.);
#363=VECTOR('',#1202,1.);
#364=VECTOR('',#1203,1.);
#365=VECTOR('',#1204,1.);
#366=VECTOR('',#1207,1.);
#367=VECTOR('',#1208,1.);
#368=VECTOR('',#1209,1.);
#369=VECTOR('',#1210,1.);
#370=VECTOR('',#1213,1.);
#371=VECTOR('',#1214,1.);
#372=VECTOR('',#1215,1.);
#373=VECTOR('',#1218,1.);
#374=VECTOR('',#1219,1.);
#375=VECTOR('',#1220,1.);
#376=VECTOR('',#1221,1.);
#377=VECTOR('',#1222,1.);
#378=VECTOR('',#1227,1.);
#379=VECTOR('',#1232,1.);
#380=VECTOR('',#1233,1.);
#381=VECTOR('',#1234,1.);
#382=VECTOR('',#1237,1.25);
#383=VECTOR('',#1240,1.25);
#384=VECTOR('',#1243,1.25);
#385=VECTOR('',#1246,1.);
#386=VECTOR('',#1247,1.);
#387=VECTOR('',#1250,1.);
#388=VECTOR('',#1253,1.);
#389=VECTOR('',#1260,1.);
#390=VECTOR('',#1263,1.);
#391=VECTOR('',#1272,1.);
#392=VECTOR('',#1275,1.);
#393=VECTOR('',#1278,1.);
#394=VECTOR('',#1281,1.);
#395=VECTOR('',#1284,1.);
#396=VECTOR('',#1287,1.);
#397=VERTEX_POINT('',#1298);
#398=VERTEX_POINT('',#1299);
#399=VERTEX_POINT('',#1301);
#400=VERTEX_POINT('',#1303);
#401=VERTEX_POINT('',#1305);
#402=VERTEX_POINT('',#1307);
#403=VERTEX_POINT('',#1309);
#404=VERTEX_POINT('',#1311);
#405=VERTEX_POINT('',#1313);
#406=VERTEX_POINT('',#1315);
#407=VERTEX_POINT('',#1317);
#408=VERTEX_POINT('',#1319);
#409=VERTEX_POINT('',#1322);
#410=VERTEX_POINT('',#1323);
#411=VERTEX_POINT('',#1325);
#412=VERTEX_POINT('',#1327);
#413=VERTEX_POINT('',#1330);
#414=VERTEX_POINT('',#1332);
#415=VERTEX_POINT('',#1334);
#416=VERTEX_POINT('',#1337);
#417=VERTEX_POINT('',#1339);
#418=VERTEX_POINT('',#1343);
#419=VERTEX_POINT('',#1345);
#420=VERTEX_POINT('',#1349);
#421=VERTEX_POINT('',#1351);
#422=VERTEX_POINT('',#1355);
#423=VERTEX_POINT('',#1356);
#424=VERTEX_POINT('',#1358);
#425=VERTEX_POINT('',#1360);
#426=VERTEX_POINT('',#1364);
#427=VERTEX_POINT('',#1366);
#428=VERTEX_POINT('',#1370);
#429=VERTEX_POINT('',#1372);
#430=VERTEX_POINT('',#1379);
#431=VERTEX_POINT('',#1383);
#432=VERTEX_POINT('',#1387);
#433=VERTEX_POINT('',#1391);
#434=VERTEX_POINT('',#1392);
#435=VERTEX_POINT('',#1394);
#436=VERTEX_POINT('',#1396);
#437=VERTEX_POINT('',#1400);
#438=VERTEX_POINT('',#1402);
#439=VERTEX_POINT('',#1406);
#440=VERTEX_POINT('',#1408);
#441=VERTEX_POINT('',#1412);
#442=VERTEX_POINT('',#1414);
#443=VERTEX_POINT('',#1418);
#444=VERTEX_POINT('',#1420);
#445=VERTEX_POINT('',#1424);
#446=VERTEX_POINT('',#1426);
#447=VERTEX_POINT('',#1430);
#448=VERTEX_POINT('',#1431);
#449=VERTEX_POINT('',#1433);
#450=VERTEX_POINT('',#1435);
#451=VERTEX_POINT('',#1439);
#452=VERTEX_POINT('',#1441);
#453=VERTEX_POINT('',#1445);
#454=VERTEX_POINT('',#1447);
#455=VERTEX_POINT('',#1451);
#456=VERTEX_POINT('',#1453);
#457=VERTEX_POINT('',#1457);
#458=VERTEX_POINT('',#1459);
#459=VERTEX_POINT('',#1461);
#460=VERTEX_POINT('',#1463);
#461=VERTEX_POINT('',#1465);
#462=VERTEX_POINT('',#1467);
#463=VERTEX_POINT('',#1469);
#464=VERTEX_POINT('',#1473);
#465=VERTEX_POINT('',#1477);
#466=VERTEX_POINT('',#1478);
#467=VERTEX_POINT('',#1480);
#468=VERTEX_POINT('',#1482);
#469=VERTEX_POINT('',#1486);
#470=VERTEX_POINT('',#1488);
#471=VERTEX_POINT('',#1492);
#472=VERTEX_POINT('',#1493);
#473=VERTEX_POINT('',#1495);
#474=VERTEX_POINT('',#1497);
#475=VERTEX_POINT('',#1501);
#476=VERTEX_POINT('',#1502);
#477=VERTEX_POINT('',#1508);
#478=VERTEX_POINT('',#1510);
#479=VERTEX_POINT('',#1515);
#480=VERTEX_POINT('',#1517);
#481=VERTEX_POINT('',#1521);
#482=VERTEX_POINT('',#1523);
#483=EDGE_CURVE('',#397,#398,#185,.T.);
#484=EDGE_CURVE('',#399,#397,#186,.T.);
#485=EDGE_CURVE('',#400,#399,#187,.T.);
#486=EDGE_CURVE('',#400,#401,#188,.T.);
#487=EDGE_CURVE('',#401,#402,#189,.T.);
#488=EDGE_CURVE('',#402,#403,#190,.T.);
#489=EDGE_CURVE('',#403,#404,#191,.T.);
#490=EDGE_CURVE('',#404,#405,#192,.T.);
#491=EDGE_CURVE('',#405,#406,#193,.T.);
#492=EDGE_CURVE('',#406,#407,#194,.T.);
#493=EDGE_CURVE('',#407,#408,#195,.T.);
#494=EDGE_CURVE('',#408,#398,#196,.T.);
#495=EDGE_CURVE('',#409,#410,#197,.T.);
#496=EDGE_CURVE('',#410,#411,#198,.T.);
#497=EDGE_CURVE('',#411,#412,#199,.T.);
#498=EDGE_CURVE('',#412,#409,#200,.T.);
#499=EDGE_CURVE('',#413,#413,#31,.T.);
#500=EDGE_CURVE('',#414,#414,#32,.T.);
#501=EDGE_CURVE('',#415,#415,#33,.T.);
#502=EDGE_CURVE('',#416,#416,#34,.T.);
#503=EDGE_CURVE('',#416,#417,#201,.T.);
#504=EDGE_CURVE('',#417,#417,#35,.T.);
#505=EDGE_CURVE('',#418,#418,#36,.T.);
#506=EDGE_CURVE('',#418,#419,#202,.T.);
#507=EDGE_CURVE('',#419,#419,#37,.T.);
#508=EDGE_CURVE('',#420,#420,#38,.T.);
#509=EDGE_CURVE('',#420,#421,#203,.T.);
#510=EDGE_CURVE('',#421,#421,#39,.T.);
#511=EDGE_CURVE('',#422,#423,#204,.T.);
#512=EDGE_CURVE('',#422,#424,#205,.T.);
#513=EDGE_CURVE('',#424,#425,#206,.T.);
#514=EDGE_CURVE('',#423,#425,#207,.T.);
#515=EDGE_CURVE('',#426,#422,#208,.T.);
#516=EDGE_CURVE('',#426,#427,#209,.T.);
#517=EDGE_CURVE('',#427,#424,#210,.T.);
#518=EDGE_CURVE('',#428,#426,#211,.T.);
#519=EDGE_CURVE('',#428,#429,#212,.T.);
#520=EDGE_CURVE('',#429,#427,#213,.T.);
#521=EDGE_CURVE('',#423,#428,#214,.T.);
#522=EDGE_CURVE('',#425,#429,#215,.T.);
#523=EDGE_CURVE('',#417,#430,#216,.T.);
#524=EDGE_CURVE('',#430,#430,#40,.T.);
#525=EDGE_CURVE('',#419,#431,#217,.T.);
#526=EDGE_CURVE('',#431,#431,#41,.T.);
#527=EDGE_CURVE('',#421,#432,#218,.T.);
#528=EDGE_CURVE('',#432,#432,#42,.T.);
#529=EDGE_CURVE('',#433,#434,#219,.T.);
#530=EDGE_CURVE('',#433,#435,#220,.T.);
#531=EDGE_CURVE('',#435,#436,#221,.T.);
#532=EDGE_CURVE('',#434,#436,#222,.T.);
#533=EDGE_CURVE('',#437,#433,#223,.T.);
#534=EDGE_CURVE('',#437,#438,#224,.T.);
#535=EDGE_CURVE('',#438,#435,#225,.T.);
#536=EDGE_CURVE('',#439,#437,#226,.T.);
#537=EDGE_CURVE('',#439,#440,#227,.T.);
#538=EDGE_CURVE('',#440,#438,#228,.T.);
#539=EDGE_CURVE('',#441,#441,#43,.T.);
#540=EDGE_CURVE('',#441,#442,#229,.T.);
#541=EDGE_CURVE('',#442,#442,#44,.T.);
#542=EDGE_CURVE('',#443,#443,#45,.T.);
#543=EDGE_CURVE('',#443,#444,#230,.T.);
#544=EDGE_CURVE('',#444,#444,#46,.T.);
#545=EDGE_CURVE('',#445,#445,#47,.T.);
#546=EDGE_CURVE('',#445,#446,#231,.T.);
#547=EDGE_CURVE('',#446,#446,#48,.T.);
#548=EDGE_CURVE('',#447,#448,#232,.T.);
#549=EDGE_CURVE('',#449,#448,#233,.T.);
#550=EDGE_CURVE('',#449,#450,#234,.T.);
#551=EDGE_CURVE('',#450,#447,#235,.T.);
#552=EDGE_CURVE('',#451,#447,#236,.T.);
#553=EDGE_CURVE('',#452,#451,#237,.T.);
#554=EDGE_CURVE('',#448,#452,#238,.T.);
#555=EDGE_CURVE('',#450,#453,#239,.T.);
#556=EDGE_CURVE('',#454,#449,#240,.T.);
#557=EDGE_CURVE('',#453,#454,#241,.T.);
#558=EDGE_CURVE('',#455,#439,#242,.T.);
#559=EDGE_CURVE('',#455,#456,#243,.T.);
#560=EDGE_CURVE('',#456,#440,#244,.T.);
#561=EDGE_CURVE('',#457,#456,#245,.T.);
#562=EDGE_CURVE('',#458,#457,#246,.T.);
#563=EDGE_CURVE('',#459,#458,#247,.T.);
#564=EDGE_CURVE('',#460,#459,#248,.T.);
#565=EDGE_CURVE('',#461,#460,#249,.T.);
#566=EDGE_CURVE('',#462,#461,#250,.T.);
#567=EDGE_CURVE('',#463,#462,#251,.T.);
#568=EDGE_CURVE('',#436,#463,#252,.T.);
#569=EDGE_CURVE('',#434,#464,#253,.T.);
#570=EDGE_CURVE('',#464,#463,#254,.T.);
#571=EDGE_CURVE('',#465,#466,#49,.T.);
#572=EDGE_CURVE('',#467,#465,#255,.T.);
#573=EDGE_CURVE('',#468,#467,#50,.T.);
#574=EDGE_CURVE('',#466,#468,#256,.T.);
#575=EDGE_CURVE('',#469,#465,#257,.T.);
#576=EDGE_CURVE('',#470,#469,#258,.T.);
#577=EDGE_CURVE('',#467,#470,#259,.T.);
#578=EDGE_CURVE('',#471,#472,#260,.T.);
#579=EDGE_CURVE('',#472,#473,#261,.T.);
#580=EDGE_CURVE('',#473,#474,#262,.T.);
#581=EDGE_CURVE('',#474,#471,#263,.T.);
#582=EDGE_CURVE('',#475,#476,#264,.T.);
#583=EDGE_CURVE('',#476,#472,#265,.T.);
#584=EDGE_CURVE('',#475,#471,#266,.T.);
#585=EDGE_CURVE('',#476,#468,#267,.T.);
#586=EDGE_CURVE('',#477,#475,#268,.T.);
#587=EDGE_CURVE('',#477,#478,#269,.T.);
#588=EDGE_CURVE('',#478,#455,#270,.T.);
#589=EDGE_CURVE('',#464,#466,#271,.T.);
#590=EDGE_CURVE('',#479,#477,#51,.T.);
#591=EDGE_CURVE('',#480,#479,#272,.T.);
#592=EDGE_CURVE('',#478,#480,#52,.T.);
#593=EDGE_CURVE('',#481,#479,#273,.T.);
#594=EDGE_CURVE('',#482,#481,#274,.T.);
#595=EDGE_CURVE('',#480,#482,#275,.T.);
#596=EDGE_CURVE('',#442,#415,#276,.T.);
#597=EDGE_CURVE('',#444,#414,#277,.T.);
#598=EDGE_CURVE('',#446,#413,#278,.T.);
#599=EDGE_CURVE('',#409,#453,#279,.T.);
#600=EDGE_CURVE('',#412,#451,#280,.T.);
#601=EDGE_CURVE('',#411,#452,#281,.T.);
#602=EDGE_CURVE('',#410,#454,#282,.T.);
#603=EDGE_CURVE('',#470,#400,#53,.T.);
#604=EDGE_CURVE('',#399,#473,#283,.T.);
#605=EDGE_CURVE('',#397,#474,#284,.T.);
#606=EDGE_CURVE('',#398,#481,#54,.T.);
#607=EDGE_CURVE('',#482,#408,#55,.T.);
#608=EDGE_CURVE('',#407,#457,#285,.T.);
#609=EDGE_CURVE('',#406,#458,#286,.T.);
#610=EDGE_CURVE('',#405,#459,#287,.T.);
#611=EDGE_CURVE('',#404,#460,#288,.T.);
#612=EDGE_CURVE('',#403,#461,#289,.T.);
#613=EDGE_CURVE('',#402,#462,#290,.T.);
#614=EDGE_CURVE('',#401,#469,#56,.T.);
#615=ORIENTED_EDGE('',*,*,#483,.F.);
#616=ORIENTED_EDGE('',*,*,#484,.F.);
#617=ORIENTED_EDGE('',*,*,#485,.F.);
#618=ORIENTED_EDGE('',*,*,#486,.T.);
#619=ORIENTED_EDGE('',*,*,#487,.T.);
#620=ORIENTED_EDGE('',*,*,#488,.T.);
#621=ORIENTED_EDGE('',*,*,#489,.T.);
#622=ORIENTED_EDGE('',*,*,#490,.T.);
#623=ORIENTED_EDGE('',*,*,#491,.T.);
#624=ORIENTED_EDGE('',*,*,#492,.T.);
#625=ORIENTED_EDGE('',*,*,#493,.T.);
#626=ORIENTED_EDGE('',*,*,#494,.T.);
#627=ORIENTED_EDGE('',*,*,#495,.T.);
#628=ORIENTED_EDGE('',*,*,#496,.T.);
#629=ORIENTED_EDGE('',*,*,#497,.T.);
#630=ORIENTED_EDGE('',*,*,#498,.T.);
#631=ORIENTED_EDGE('',*,*,#499,.T.);
#632=ORIENTED_EDGE('',*,*,#500,.T.);
#633=ORIENTED_EDGE('',*,*,#501,.T.);
#634=ORIENTED_EDGE('',*,*,#502,.F.);
#635=ORIENTED_EDGE('',*,*,#503,.T.);
#636=ORIENTED_EDGE('',*,*,#504,.T.);
#637=ORIENTED_EDGE('',*,*,#503,.F.);
#638=ORIENTED_EDGE('',*,*,#505,.F.);
#639=ORIENTED_EDGE('',*,*,#506,.T.);
#640=ORIENTED_EDGE('',*,*,#507,.T.);
#641=ORIENTED_EDGE('',*,*,#506,.F.);
#642=ORIENTED_EDGE('',*,*,#508,.F.);
#643=ORIENTED_EDGE('',*,*,#509,.T.);
#644=ORIENTED_EDGE('',*,*,#510,.T.);
#645=ORIENTED_EDGE('',*,*,#509,.F.);
#646=ORIENTED_EDGE('',*,*,#511,.F.);
#647=ORIENTED_EDGE('',*,*,#512,.T.);
#648=ORIENTED_EDGE('',*,*,#513,.T.);
#649=ORIENTED_EDGE('',*,*,#514,.F.);
#650=ORIENTED_EDGE('',*,*,#515,.F.);
#651=ORIENTED_EDGE('',*,*,#516,.T.);
#652=ORIENTED_EDGE('',*,*,#517,.T.);
#653=ORIENTED_EDGE('',*,*,#512,.F.);
#654=ORIENTED_EDGE('',*,*,#518,.F.);
#655=ORIENTED_EDGE('',*,*,#519,.T.);
#656=ORIENTED_EDGE('',*,*,#520,.T.);
#657=ORIENTED_EDGE('',*,*,#516,.F.);
#658=ORIENTED_EDGE('',*,*,#521,.F.);
#659=ORIENTED_EDGE('',*,*,#514,.T.);
#660=ORIENTED_EDGE('',*,*,#522,.T.);
#661=ORIENTED_EDGE('',*,*,#519,.F.);
#662=ORIENTED_EDGE('',*,*,#504,.F.);
#663=ORIENTED_EDGE('',*,*,#523,.T.);
#664=ORIENTED_EDGE('',*,*,#524,.F.);
#665=ORIENTED_EDGE('',*,*,#523,.F.);
#666=ORIENTED_EDGE('',*,*,#507,.F.);
#667=ORIENTED_EDGE('',*,*,#525,.T.);
#668=ORIENTED_EDGE('',*,*,#526,.F.);
#669=ORIENTED_EDGE('',*,*,#525,.F.);
#670=ORIENTED_EDGE('',*,*,#510,.F.);
#671=ORIENTED_EDGE('',*,*,#527,.T.);
#672=ORIENTED_EDGE('',*,*,#528,.F.);
#673=ORIENTED_EDGE('',*,*,#527,.F.);
#674=ORIENTED_EDGE('',*,*,#529,.F.);
#675=ORIENTED_EDGE('',*,*,#530,.T.);
#676=ORIENTED_EDGE('',*,*,#531,.T.);
#677=ORIENTED_EDGE('',*,*,#532,.F.);
#678=ORIENTED_EDGE('',*,*,#533,.F.);
#679=ORIENTED_EDGE('',*,*,#534,.T.);
#680=ORIENTED_EDGE('',*,*,#535,.T.);
#681=ORIENTED_EDGE('',*,*,#530,.F.);
#682=ORIENTED_EDGE('',*,*,#536,.F.);
#683=ORIENTED_EDGE('',*,*,#537,.T.);
#684=ORIENTED_EDGE('',*,*,#538,.T.);
#685=ORIENTED_EDGE('',*,*,#534,.F.);
#686=ORIENTED_EDGE('',*,*,#539,.F.);
#687=ORIENTED_EDGE('',*,*,#540,.T.);
#688=ORIENTED_EDGE('',*,*,#541,.T.);
#689=ORIENTED_EDGE('',*,*,#540,.F.);
#690=ORIENTED_EDGE('',*,*,#542,.F.);
#691=ORIENTED_EDGE('',*,*,#543,.T.);
#692=ORIENTED_EDGE('',*,*,#544,.T.);
#693=ORIENTED_EDGE('',*,*,#543,.F.);
#694=ORIENTED_EDGE('',*,*,#545,.F.);
#695=ORIENTED_EDGE('',*,*,#546,.T.);
#696=ORIENTED_EDGE('',*,*,#547,.T.);
#697=ORIENTED_EDGE('',*,*,#546,.F.);
#698=ORIENTED_EDGE('',*,*,#548,.T.);
#699=ORIENTED_EDGE('',*,*,#549,.F.);
#700=ORIENTED_EDGE('',*,*,#550,.T.);
#701=ORIENTED_EDGE('',*,*,#551,.T.);
#702=ORIENTED_EDGE('',*,*,#520,.F.);
#703=ORIENTED_EDGE('',*,*,#522,.F.);
#704=ORIENTED_EDGE('',*,*,#513,.F.);
#705=ORIENTED_EDGE('',*,*,#517,.F.);
#706=ORIENTED_EDGE('',*,*,#545,.T.);
#707=ORIENTED_EDGE('',*,*,#508,.T.);
#708=ORIENTED_EDGE('',*,*,#505,.T.);
#709=ORIENTED_EDGE('',*,*,#502,.T.);
#710=ORIENTED_EDGE('',*,*,#542,.T.);
#711=ORIENTED_EDGE('',*,*,#539,.T.);
#712=ORIENTED_EDGE('',*,*,#548,.F.);
#713=ORIENTED_EDGE('',*,*,#552,.F.);
#714=ORIENTED_EDGE('',*,*,#553,.F.);
#715=ORIENTED_EDGE('',*,*,#554,.F.);
#716=ORIENTED_EDGE('',*,*,#555,.F.);
#717=ORIENTED_EDGE('',*,*,#550,.F.);
#718=ORIENTED_EDGE('',*,*,#556,.F.);
#719=ORIENTED_EDGE('',*,*,#557,.F.);
#720=ORIENTED_EDGE('',*,*,#558,.F.);
#721=ORIENTED_EDGE('',*,*,#559,.T.);
#722=ORIENTED_EDGE('',*,*,#560,.T.);
#723=ORIENTED_EDGE('',*,*,#537,.F.);
#724=ORIENTED_EDGE('',*,*,#561,.F.);
#725=ORIENTED_EDGE('',*,*,#562,.F.);
#726=ORIENTED_EDGE('',*,*,#563,.F.);
#727=ORIENTED_EDGE('',*,*,#564,.F.);
#728=ORIENTED_EDGE('',*,*,#565,.F.);
#729=ORIENTED_EDGE('',*,*,#566,.F.);
#730=ORIENTED_EDGE('',*,*,#567,.F.);
#731=ORIENTED_EDGE('',*,*,#568,.F.);
#732=ORIENTED_EDGE('',*,*,#531,.F.);
#733=ORIENTED_EDGE('',*,*,#535,.F.);
#734=ORIENTED_EDGE('',*,*,#538,.F.);
#735=ORIENTED_EDGE('',*,*,#560,.F.);
#736=ORIENTED_EDGE('',*,*,#569,.F.);
#737=ORIENTED_EDGE('',*,*,#532,.T.);
#738=ORIENTED_EDGE('',*,*,#568,.T.);
#739=ORIENTED_EDGE('',*,*,#570,.F.);
#740=ORIENTED_EDGE('',*,*,#571,.F.);
#741=ORIENTED_EDGE('',*,*,#572,.F.);
#742=ORIENTED_EDGE('',*,*,#573,.F.);
#743=ORIENTED_EDGE('',*,*,#574,.F.);
#744=ORIENTED_EDGE('',*,*,#575,.F.);
#745=ORIENTED_EDGE('',*,*,#576,.F.);
#746=ORIENTED_EDGE('',*,*,#577,.F.);
#747=ORIENTED_EDGE('',*,*,#572,.T.);
#748=ORIENTED_EDGE('',*,*,#578,.T.);
#749=ORIENTED_EDGE('',*,*,#579,.T.);
#750=ORIENTED_EDGE('',*,*,#580,.T.);
#751=ORIENTED_EDGE('',*,*,#581,.T.);
#752=ORIENTED_EDGE('',*,*,#521,.T.);
#753=ORIENTED_EDGE('',*,*,#518,.T.);
#754=ORIENTED_EDGE('',*,*,#515,.T.);
#755=ORIENTED_EDGE('',*,*,#511,.T.);
#756=ORIENTED_EDGE('',*,*,#582,.T.);
#757=ORIENTED_EDGE('',*,*,#583,.T.);
#758=ORIENTED_EDGE('',*,*,#578,.F.);
#759=ORIENTED_EDGE('',*,*,#584,.F.);
#760=ORIENTED_EDGE('',*,*,#574,.T.);
#761=ORIENTED_EDGE('',*,*,#585,.F.);
#762=ORIENTED_EDGE('',*,*,#582,.F.);
#763=ORIENTED_EDGE('',*,*,#586,.F.);
#764=ORIENTED_EDGE('',*,*,#587,.T.);
#765=ORIENTED_EDGE('',*,*,#588,.T.);
#766=ORIENTED_EDGE('',*,*,#558,.T.);
#767=ORIENTED_EDGE('',*,*,#536,.T.);
#768=ORIENTED_EDGE('',*,*,#533,.T.);
#769=ORIENTED_EDGE('',*,*,#529,.T.);
#770=ORIENTED_EDGE('',*,*,#569,.T.);
#771=ORIENTED_EDGE('',*,*,#589,.T.);
#772=ORIENTED_EDGE('',*,*,#528,.T.);
#773=ORIENTED_EDGE('',*,*,#526,.T.);
#774=ORIENTED_EDGE('',*,*,#524,.T.);
#775=ORIENTED_EDGE('',*,*,#590,.F.);
#776=ORIENTED_EDGE('',*,*,#591,.F.);
#777=ORIENTED_EDGE('',*,*,#592,.F.);
#778=ORIENTED_EDGE('',*,*,#587,.F.);
#779=ORIENTED_EDGE('',*,*,#593,.F.);
#780=ORIENTED_EDGE('',*,*,#594,.F.);
#781=ORIENTED_EDGE('',*,*,#595,.F.);
#782=ORIENTED_EDGE('',*,*,#591,.T.);
#783=ORIENTED_EDGE('',*,*,#541,.F.);
#784=ORIENTED_EDGE('',*,*,#596,.T.);
#785=ORIENTED_EDGE('',*,*,#501,.F.);
#786=ORIENTED_EDGE('',*,*,#596,.F.);
#787=ORIENTED_EDGE('',*,*,#544,.F.);
#788=ORIENTED_EDGE('',*,*,#597,.T.);
#789=ORIENTED_EDGE('',*,*,#500,.F.);
#790=ORIENTED_EDGE('',*,*,#597,.F.);
#791=ORIENTED_EDGE('',*,*,#547,.F.);
#792=ORIENTED_EDGE('',*,*,#598,.T.);
#793=ORIENTED_EDGE('',*,*,#499,.F.);
#794=ORIENTED_EDGE('',*,*,#598,.F.);
#795=ORIENTED_EDGE('',*,*,#552,.T.);
#796=ORIENTED_EDGE('',*,*,#551,.F.);
#797=ORIENTED_EDGE('',*,*,#555,.T.);
#798=ORIENTED_EDGE('',*,*,#599,.F.);
#799=ORIENTED_EDGE('',*,*,#498,.F.);
#800=ORIENTED_EDGE('',*,*,#600,.T.);
#801=ORIENTED_EDGE('',*,*,#553,.T.);
#802=ORIENTED_EDGE('',*,*,#600,.F.);
#803=ORIENTED_EDGE('',*,*,#497,.F.);
#804=ORIENTED_EDGE('',*,*,#601,.T.);
#805=ORIENTED_EDGE('',*,*,#554,.T.);
#806=ORIENTED_EDGE('',*,*,#601,.F.);
#807=ORIENTED_EDGE('',*,*,#496,.F.);
#808=ORIENTED_EDGE('',*,*,#602,.T.);
#809=ORIENTED_EDGE('',*,*,#556,.T.);
#810=ORIENTED_EDGE('',*,*,#549,.T.);
#811=ORIENTED_EDGE('',*,*,#495,.F.);
#812=ORIENTED_EDGE('',*,*,#599,.T.);
#813=ORIENTED_EDGE('',*,*,#557,.T.);
#814=ORIENTED_EDGE('',*,*,#602,.F.);
#815=ORIENTED_EDGE('',*,*,#603,.T.);
#816=ORIENTED_EDGE('',*,*,#485,.T.);
#817=ORIENTED_EDGE('',*,*,#604,.T.);
#818=ORIENTED_EDGE('',*,*,#579,.F.);
#819=ORIENTED_EDGE('',*,*,#583,.F.);
#820=ORIENTED_EDGE('',*,*,#585,.T.);
#821=ORIENTED_EDGE('',*,*,#573,.T.);
#822=ORIENTED_EDGE('',*,*,#577,.T.);
#823=ORIENTED_EDGE('',*,*,#484,.T.);
#824=ORIENTED_EDGE('',*,*,#605,.T.);
#825=ORIENTED_EDGE('',*,*,#580,.F.);
#826=ORIENTED_EDGE('',*,*,#604,.F.);
#827=ORIENTED_EDGE('',*,*,#606,.F.);
#828=ORIENTED_EDGE('',*,*,#494,.F.);
#829=ORIENTED_EDGE('',*,*,#607,.F.);
#830=ORIENTED_EDGE('',*,*,#594,.T.);
#831=ORIENTED_EDGE('',*,*,#607,.T.);
#832=ORIENTED_EDGE('',*,*,#493,.F.);
#833=ORIENTED_EDGE('',*,*,#608,.T.);
#834=ORIENTED_EDGE('',*,*,#561,.T.);
#835=ORIENTED_EDGE('',*,*,#559,.F.);
#836=ORIENTED_EDGE('',*,*,#588,.F.);
#837=ORIENTED_EDGE('',*,*,#592,.T.);
#838=ORIENTED_EDGE('',*,*,#595,.T.);
#839=ORIENTED_EDGE('',*,*,#492,.F.);
#840=ORIENTED_EDGE('',*,*,#609,.T.);
#841=ORIENTED_EDGE('',*,*,#562,.T.);
#842=ORIENTED_EDGE('',*,*,#608,.F.);
#843=ORIENTED_EDGE('',*,*,#491,.F.);
#844=ORIENTED_EDGE('',*,*,#610,.T.);
#845=ORIENTED_EDGE('',*,*,#563,.T.);
#846=ORIENTED_EDGE('',*,*,#609,.F.);
#847=ORIENTED_EDGE('',*,*,#490,.F.);
#848=ORIENTED_EDGE('',*,*,#611,.T.);
#849=ORIENTED_EDGE('',*,*,#564,.T.);
#850=ORIENTED_EDGE('',*,*,#610,.F.);
#851=ORIENTED_EDGE('',*,*,#489,.F.);
#852=ORIENTED_EDGE('',*,*,#612,.T.);
#853=ORIENTED_EDGE('',*,*,#565,.T.);
#854=ORIENTED_EDGE('',*,*,#611,.F.);
#855=ORIENTED_EDGE('',*,*,#488,.F.);
#856=ORIENTED_EDGE('',*,*,#613,.T.);
#857=ORIENTED_EDGE('',*,*,#566,.T.);
#858=ORIENTED_EDGE('',*,*,#612,.F.);
#859=ORIENTED_EDGE('',*,*,#614,.T.);
#860=ORIENTED_EDGE('',*,*,#575,.T.);
#861=ORIENTED_EDGE('',*,*,#571,.T.);
#862=ORIENTED_EDGE('',*,*,#589,.F.);
#863=ORIENTED_EDGE('',*,*,#570,.T.);
#864=ORIENTED_EDGE('',*,*,#567,.T.);
#865=ORIENTED_EDGE('',*,*,#613,.F.);
#866=ORIENTED_EDGE('',*,*,#487,.F.);
#867=ORIENTED_EDGE('',*,*,#614,.F.);
#868=ORIENTED_EDGE('',*,*,#486,.F.);
#869=ORIENTED_EDGE('',*,*,#603,.F.);
#870=ORIENTED_EDGE('',*,*,#576,.T.);
#871=ORIENTED_EDGE('',*,*,#483,.T.);
#872=ORIENTED_EDGE('',*,*,#606,.T.);
#873=ORIENTED_EDGE('',*,*,#593,.T.);
#874=ORIENTED_EDGE('',*,*,#590,.T.);
#875=ORIENTED_EDGE('',*,*,#586,.T.);
#876=ORIENTED_EDGE('',*,*,#584,.T.);
#877=ORIENTED_EDGE('',*,*,#581,.F.);
#878=ORIENTED_EDGE('',*,*,#605,.F.);
#879=PLANE('',#963);
#880=PLANE('',#976);
#881=PLANE('',#977);
#882=PLANE('',#978);
#883=PLANE('',#979);
#884=PLANE('',#986);
#885=PLANE('',#987);
#886=PLANE('',#988);
#887=PLANE('',#998);
#888=PLANE('',#999);
#889=PLANE('',#1000);
#890=PLANE('',#1001);
#891=PLANE('',#1002);
#892=PLANE('',#1003);
#893=PLANE('',#1007);
#894=PLANE('',#1008);
#895=PLANE('',#1009);
#896=PLANE('',#1010);
#897=PLANE('',#1014);
#898=PLANE('',#1018);
#899=PLANE('',#1019);
#900=PLANE('',#1020);
#901=PLANE('',#1021);
#902=PLANE('',#1022);
#903=PLANE('',#1024);
#904=PLANE('',#1028);
#905=PLANE('',#1029);
#906=PLANE('',#1030);
#907=PLANE('',#1031);
#908=PLANE('',#1032);
#909=PLANE('',#1033);
#910=PLANE('',#1034);
#911=PLANE('',#1037);
#912=ADVANCED_FACE('',(#72,#57,#58,#59,#60),#879,.T.);
#913=ADVANCED_FACE('',(#73),#25,.F.);
#914=ADVANCED_FACE('',(#74),#26,.F.);
#915=ADVANCED_FACE('',(#75),#27,.F.);
#916=ADVANCED_FACE('',(#76),#880,.F.);
#917=ADVANCED_FACE('',(#77),#881,.F.);
#918=ADVANCED_FACE('',(#78),#882,.F.);
#919=ADVANCED_FACE('',(#79),#883,.F.);
#920=ADVANCED_FACE('',(#80),#15,.F.);
#921=ADVANCED_FACE('',(#81),#16,.F.);
#922=ADVANCED_FACE('',(#82),#17,.F.);
#923=ADVANCED_FACE('',(#83),#884,.F.);
#924=ADVANCED_FACE('',(#84),#885,.F.);
#925=ADVANCED_FACE('',(#85),#886,.F.);
#926=ADVANCED_FACE('',(#86),#28,.F.);
#927=ADVANCED_FACE('',(#87),#29,.F.);
#928=ADVANCED_FACE('',(#88),#30,.F.);
#929=ADVANCED_FACE('',(#89),#887,.T.);
#930=ADVANCED_FACE('',(#90,#61,#62,#63,#64,#65,#66,#67),#888,.F.);
#931=ADVANCED_FACE('',(#91),#889,.F.);
#932=ADVANCED_FACE('',(#92),#890,.F.);
#933=ADVANCED_FACE('',(#93),#891,.F.);
#934=ADVANCED_FACE('',(#94),#892,.F.);
#935=ADVANCED_FACE('',(#95),#18,.F.);
#936=ADVANCED_FACE('',(#96),#893,.F.);
#937=ADVANCED_FACE('',(#97,#68),#894,.T.);
#938=ADVANCED_FACE('',(#98),#895,.T.);
#939=ADVANCED_FACE('',(#99,#69,#70,#71),#896,.T.);
#940=ADVANCED_FACE('',(#100),#19,.F.);
#941=ADVANCED_FACE('',(#101),#897,.F.);
#942=ADVANCED_FACE('',(#102),#20,.F.);
#943=ADVANCED_FACE('',(#103),#21,.F.);
#944=ADVANCED_FACE('',(#104),#22,.F.);
#945=ADVANCED_FACE('',(#105),#898,.T.);
#946=ADVANCED_FACE('',(#106),#899,.T.);
#947=ADVANCED_FACE('',(#107),#900,.T.);
#948=ADVANCED_FACE('',(#108),#901,.F.);
#949=ADVANCED_FACE('',(#109),#902,.T.);
#950=ADVANCED_FACE('',(#110),#903,.T.);
#951=ADVANCED_FACE('',(#111),#23,.F.);
#952=ADVANCED_FACE('',(#112),#904,.F.);
#953=ADVANCED_FACE('',(#113),#905,.F.);
#954=ADVANCED_FACE('',(#114),#906,.F.);
#955=ADVANCED_FACE('',(#115),#907,.F.);
#956=ADVANCED_FACE('',(#116),#908,.F.);
#957=ADVANCED_FACE('',(#117),#909,.F.);
#958=ADVANCED_FACE('',(#118),#910,.F.);
#959=ADVANCED_FACE('',(#119),#24,.F.);
#960=ADVANCED_FACE('',(#120),#911,.T.);
#961=CLOSED_SHELL('',(#912,#913,#914,#915,#916,#917,#918,#919,#920,#921,
#922,#923,#924,#925,#926,#927,#928,#929,#930,#931,#932,#933,#934,#935,#936,
#937,#938,#939,#940,#941,#942,#943,#944,#945,#946,#947,#948,#949,#950,#951,
#952,#953,#954,#955,#956,#957,#958,#959,#960));
#962=AXIS2_PLACEMENT_3D('',#1296,#1038,#1039);
#963=AXIS2_PLACEMENT_3D('',#1297,#1040,#1041);
#964=AXIS2_PLACEMENT_3D('',#1331,#1058,#1059);
#965=AXIS2_PLACEMENT_3D('',#1333,#1060,#1061);
#966=AXIS2_PLACEMENT_3D('',#1335,#1062,#1063);
#967=AXIS2_PLACEMENT_3D('',#1336,#1064,#1065);
#968=AXIS2_PLACEMENT_3D('',#1338,#1066,#1067);
#969=AXIS2_PLACEMENT_3D('',#1341,#1069,#1070);
#970=AXIS2_PLACEMENT_3D('',#1342,#1071,#1072);
#971=AXIS2_PLACEMENT_3D('',#1344,#1073,#1074);
#972=AXIS2_PLACEMENT_3D('',#1347,#1076,#1077);
#973=AXIS2_PLACEMENT_3D('',#1348,#1078,#1079);
#974=AXIS2_PLACEMENT_3D('',#1350,#1080,#1081);
#975=AXIS2_PLACEMENT_3D('',#1353,#1083,#1084);
#976=AXIS2_PLACEMENT_3D('',#1354,#1085,#1086);
#977=AXIS2_PLACEMENT_3D('',#1363,#1091,#1092);
#978=AXIS2_PLACEMENT_3D('',#1369,#1096,#1097);
#979=AXIS2_PLACEMENT_3D('',#1375,#1101,#1102);
#980=AXIS2_PLACEMENT_3D('',#1378,#1105,#1106);
#981=AXIS2_PLACEMENT_3D('',#1381,#1108,#1109);
#982=AXIS2_PLACEMENT_3D('',#1382,#1110,#1111);
#983=AXIS2_PLACEMENT_3D('',#1385,#1113,#1114);
#984=AXIS2_PLACEMENT_3D('',#1386,#1115,#1116);
#985=AXIS2_PLACEMENT_3D('',#1389,#1118,#1119);
#986=AXIS2_PLACEMENT_3D('',#1390,#1120,#1121);
#987=AXIS2_PLACEMENT_3D('',#1399,#1126,#1127);
#988=AXIS2_PLACEMENT_3D('',#1405,#1131,#1132);
#989=AXIS2_PLACEMENT_3D('',#1411,#1136,#1137);
#990=AXIS2_PLACEMENT_3D('',#1413,#1138,#1139);
#991=AXIS2_PLACEMENT_3D('',#1416,#1141,#1142);
#992=AXIS2_PLACEMENT_3D('',#1417,#1143,#1144);
#993=AXIS2_PLACEMENT_3D('',#1419,#1145,#1146);
#994=AXIS2_PLACEMENT_3D('',#1422,#1148,#1149);
#995=AXIS2_PLACEMENT_3D('',#1423,#1150,#1151);
#996=AXIS2_PLACEMENT_3D('',#1425,#1152,#1153);
#997=AXIS2_PLACEMENT_3D('',#1428,#1155,#1156);
#998=AXIS2_PLACEMENT_3D('',#1429,#1157,#1158);
#999=AXIS2_PLACEMENT_3D('',#1438,#1163,#1164);
#1000=AXIS2_PLACEMENT_3D('',#1444,#1168,#1169);
#1001=AXIS2_PLACEMENT_3D('',#1450,#1173,#1174);
#1002=AXIS2_PLACEMENT_3D('',#1456,#1178,#1179);
#1003=AXIS2_PLACEMENT_3D('',#1472,#1188,#1189);
#1004=AXIS2_PLACEMENT_3D('',#1476,#1192,#1193);
#1005=AXIS2_PLACEMENT_3D('',#1479,#1194,#1195);
#1006=AXIS2_PLACEMENT_3D('',#1483,#1197,#1198);
#1007=AXIS2_PLACEMENT_3D('',#1485,#1200,#1201);
#1008=AXIS2_PLACEMENT_3D('',#1491,#1205,#1206);
#1009=AXIS2_PLACEMENT_3D('',#1500,#1211,#1212);
#1010=AXIS2_PLACEMENT_3D('',#1506,#1216,#1217);
#1011=AXIS2_PLACEMENT_3D('',#1514,#1223,#1224);
#1012=AXIS2_PLACEMENT_3D('',#1516,#1225,#1226);
#1013=AXIS2_PLACEMENT_3D('',#1519,#1228,#1229);
#1014=AXIS2_PLACEMENT_3D('',#1520,#1230,#1231);
#1015=AXIS2_PLACEMENT_3D('',#1526,#1235,#1236);
#1016=AXIS2_PLACEMENT_3D('',#1528,#1238,#1239);
#1017=AXIS2_PLACEMENT_3D('',#1530,#1241,#1242);
#1018=AXIS2_PLACEMENT_3D('',#1532,#1244,#1245);
#1019=AXIS2_PLACEMENT_3D('',#1535,#1248,#1249);
#1020=AXIS2_PLACEMENT_3D('',#1537,#1251,#1252);
#1021=AXIS2_PLACEMENT_3D('',#1539,#1254,#1255);
#1022=AXIS2_PLACEMENT_3D('',#1540,#1256,#1257);
#1023=AXIS2_PLACEMENT_3D('',#1541,#1258,#1259);
#1024=AXIS2_PLACEMENT_3D('',#1543,#1261,#1262);
#1025=AXIS2_PLACEMENT_3D('',#1545,#1264,#1265);
#1026=AXIS2_PLACEMENT_3D('',#1546,#1266,#1267);
#1027=AXIS2_PLACEMENT_3D('',#1547,#1268,#1269);
#1028=AXIS2_PLACEMENT_3D('',#1548,#1270,#1271);
#1029=AXIS2_PLACEMENT_3D('',#1550,#1273,#1274);
#1030=AXIS2_PLACEMENT_3D('',#1552,#1276,#1277);
#1031=AXIS2_PLACEMENT_3D('',#1554,#1279,#1280);
#1032=AXIS2_PLACEMENT_3D('',#1556,#1282,#1283);
#1033=AXIS2_PLACEMENT_3D('',#1558,#1285,#1286);
#1034=AXIS2_PLACEMENT_3D('',#1560,#1288,#1289);
#1035=AXIS2_PLACEMENT_3D('',#1561,#1290,#1291);
#1036=AXIS2_PLACEMENT_3D('',#1562,#1292,#1293);
#1037=AXIS2_PLACEMENT_3D('',#1563,#1294,#1295);
#1038=DIRECTION('axis',(0.,0.,1.));
#1039=DIRECTION('refdir',(1.,0.,0.));
#1040=DIRECTION('center_axis',(-2.71926214689378E-32,-1.22464679914735E-16,
-1.));
#1041=DIRECTION('ref_axis',(2.22044604925031E-16,1.,-1.22464679914735E-16));
#1042=DIRECTION('',(-1.,2.22044604925031E-16,0.));
#1043=DIRECTION('',(2.22044604925031E-16,1.,-1.22464679914735E-16));
#1044=DIRECTION('',(1.,-2.22044604925031E-16,0.));
#1045=DIRECTION('',(2.22044604925031E-16,1.,-1.22464679914735E-16));
#1046=DIRECTION('',(1.,-2.22044604925031E-16,0.));
#1047=DIRECTION('',(2.22044604925031E-16,1.,-1.22464679914735E-16));
#1048=DIRECTION('',(-1.,2.22044604925031E-16,0.));
#1049=DIRECTION('',(2.22044604925031E-16,1.,-1.22464679914735E-16));
#1050=DIRECTION('',(1.,-2.22044604925031E-16,0.));
#1051=DIRECTION('',(2.22044604925031E-16,1.,-1.22464679914735E-16));
#1052=DIRECTION('',(-1.,2.22044604925031E-16,0.));
#1053=DIRECTION('',(2.22044604925031E-16,1.,-1.22464679914735E-16));
#1054=DIRECTION('',(-1.,2.22044604925031E-16,0.));
#1055=DIRECTION('',(-2.22044604925031E-16,-1.,1.22464679914735E-16));
#1056=DIRECTION('',(1.,-2.22044604925031E-16,0.));
#1057=DIRECTION('',(2.22044604925031E-16,1.,-1.22464679914735E-16));
#1058=DIRECTION('center_axis',(2.71926214689378E-32,1.22464679914735E-16,
1.));
#1059=DIRECTION('ref_axis',(-2.22044604925031E-16,-1.,1.22464679914735E-16));
#1060=DIRECTION('center_axis',(2.71926214689378E-32,1.22464679914735E-16,
1.));
#1061=DIRECTION('ref_axis',(-2.22044604925031E-16,-1.,1.22464679914735E-16));
#1062=DIRECTION('center_axis',(2.71926214689378E-32,1.22464679914735E-16,
1.));
#1063=DIRECTION('ref_axis',(-2.22044604925031E-16,-1.,1.22464679914735E-16));
#1064=DIRECTION('center_axis',(2.71926214689378E-32,1.22464679914735E-16,
1.));
#1065=DIRECTION('ref_axis',(-2.22044604925031E-16,-1.,1.22464679914735E-16));
#1066=DIRECTION('center_axis',(-2.71926214689378E-32,-1.22464679914735E-16,
-1.));
#1067=DIRECTION('ref_axis',(-2.22044604925031E-16,-1.,1.22464679914735E-16));
#1068=DIRECTION('',(-2.43604851491927E-16,-0.707106781186548,-0.707106781186548));
#1069=DIRECTION('center_axis',(-2.71926214689378E-32,-1.22464679914735E-16,
-1.));
#1070=DIRECTION('ref_axis',(-2.22044604925031E-16,-1.,1.22464679914735E-16));
#1071=DIRECTION('center_axis',(2.71926214689378E-32,1.22464679914735E-16,
1.));
#1072=DIRECTION('ref_axis',(-2.22044604925031E-16,-1.,1.22464679914735E-16));
#1073=DIRECTION('center_axis',(-2.71926214689378E-32,-1.22464679914735E-16,
-1.));
#1074=DIRECTION('ref_axis',(-2.22044604925031E-16,-1.,1.22464679914735E-16));
#1075=DIRECTION('',(-2.43604851491927E-16,-0.707106781186548,-0.707106781186548));
#1076=DIRECTION('center_axis',(-2.71926214689378E-32,-1.22464679914735E-16,
-1.));
#1077=DIRECTION('ref_axis',(-2.22044604925031E-16,-1.,1.22464679914735E-16));
#1078=DIRECTION('center_axis',(2.71926214689378E-32,1.22464679914735E-16,
1.));
#1079=DIRECTION('ref_axis',(-2.22044604925031E-16,-1.,1.22464679914735E-16));
#1080=DIRECTION('center_axis',(-2.71926214689378E-32,-1.22464679914735E-16,
-1.));
#1081=DIRECTION('ref_axis',(-2.22044604925031E-16,-1.,1.22464679914735E-16));
#1082=DIRECTION('',(-2.43604851491927E-16,-0.707106781186548,-0.707106781186548));
#1083=DIRECTION('center_axis',(-2.71926214689378E-32,-1.22464679914735E-16,
-1.));
#1084=DIRECTION('ref_axis',(-2.22044604925031E-16,-1.,1.22464679914735E-16));
#1085=DIRECTION('center_axis',(1.,-2.22044604925031E-16,0.));
#1086=DIRECTION('ref_axis',(-2.22044604925031E-16,-1.,1.22464679914735E-16));
#1087=DIRECTION('',(-2.22044604925031E-16,-1.,1.22464679914735E-16));
#1088=DIRECTION('',(-2.71926214689378E-32,-1.22464679914735E-16,-1.));
#1089=DIRECTION('',(-2.22044604925031E-16,-1.,1.22464679914735E-16));
#1090=DIRECTION('',(-2.71926214689378E-32,-1.22464679914735E-16,-1.));
#1091=DIRECTION('center_axis',(2.22044604925031E-16,1.,-1.22464679914735E-16));
#1092=DIRECTION('ref_axis',(1.,-2.22044604925031E-16,0.));
#1093=DIRECTION('',(1.,-2.22044604925031E-16,0.));
#1094=DIRECTION('',(-2.71926214689378E-32,-1.22464679914735E-16,-1.));
#1095=DIRECTION('',(1.,-2.22044604925031E-16,0.));
#1096=DIRECTION('center_axis',(-1.,2.22044604925031E-16,0.));
#1097=DIRECTION('ref_axis',(2.22044604925031E-16,1.,-1.22464679914735E-16));
#1098=DIRECTION('',(2.22044604925031E-16,1.,-1.22464679914735E-16));
#1099=DIRECTION('',(-2.71926214689378E-32,-1.22464679914735E-16,-1.));
#1100=DIRECTION('',(2.22044604925031E-16,1.,-1.22464679914735E-16));
#1101=DIRECTION('center_axis',(-2.22044604925031E-16,-1.,1.22464679914735E-16));
#1102=DIRECTION('ref_axis',(-1.,2.22044604925031E-16,0.));
#1103=DIRECTION('',(-1.,2.22044604925031E-16,0.));
#1104=DIRECTION('',(-1.,2.22044604925031E-16,0.));
#1105=DIRECTION('center_axis',(-2.71926214689378E-32,-1.22464679914735E-16,
-1.));
#1106=DIRECTION('ref_axis',(-2.22044604925031E-16,-1.,1.22464679914735E-16));
#1107=DIRECTION('',(-2.71926214689378E-32,-1.22464679914735E-16,-1.));
#1108=DIRECTION('center_axis',(2.71926214689378E-32,1.22464679914735E-16,
1.));
#1109=DIRECTION('ref_axis',(-2.22044604925031E-16,-1.,1.22464679914735E-16));
#1110=DIRECTION('center_axis',(-2.71926214689378E-32,-1.22464679914735E-16,
-1.));
#1111=DIRECTION('ref_axis',(-2.22044604925031E-16,-1.,1.22464679914735E-16));
#1112=DIRECTION('',(-2.71926214689378E-32,-1.22464679914735E-16,-1.));
#1113=DIRECTION('center_axis',(2.71926214689378E-32,1.22464679914735E-16,
1.));
#1114=DIRECTION('ref_axis',(-2.22044604925031E-16,-1.,1.22464679914735E-16));
#1115=DIRECTION('center_axis',(-2.71926214689378E-32,-1.22464679914735E-16,
-1.));
#1116=DIRECTION('ref_axis',(-2.22044604925031E-16,-1.,1.22464679914735E-16));
#1117=DIRECTION('',(-2.71926214689378E-32,-1.22464679914735E-16,-1.));
#1118=DIRECTION('center_axis',(2.71926214689378E-32,1.22464679914735E-16,
1.));
#1119=DIRECTION('ref_axis',(-2.22044604925031E-16,-1.,1.22464679914735E-16));
#1120=DIRECTION('center_axis',(2.22044604925031E-16,1.,-1.22464679914735E-16));
#1121=DIRECTION('ref_axis',(-1.,2.22044604925031E-16,0.));
#1122=DIRECTION('',(-1.,2.22044604925031E-16,0.));
#1123=DIRECTION('',(2.71926214689378E-32,1.22464679914735E-16,1.));
#1124=DIRECTION('',(-1.,2.22044604925031E-16,0.));
#1125=DIRECTION('',(2.71926214689378E-32,1.22464679914735E-16,1.));
#1126=DIRECTION('center_axis',(-1.,2.22044604925031E-16,0.));
#1127=DIRECTION('ref_axis',(-2.22044604925031E-16,-1.,1.22464679914735E-16));
#1128=DIRECTION('',(-2.22044604925031E-16,-1.,1.22464679914735E-16));
#1129=DIRECTION('',(2.71926214689378E-32,1.22464679914735E-16,1.));
#1130=DIRECTION('',(-2.22044604925031E-16,-1.,1.22464679914735E-16));
#1131=DIRECTION('center_axis',(-2.22044604925031E-16,-1.,1.22464679914735E-16));
#1132=DIRECTION('ref_axis',(1.,-2.22044604925031E-16,0.));
#1133=DIRECTION('',(1.,-2.22044604925031E-16,0.));
#1134=DIRECTION('',(2.71926214689378E-32,1.22464679914735E-16,1.));
#1135=DIRECTION('',(1.,-2.22044604925031E-16,0.));
#1136=DIRECTION('center_axis',(2.71926214689378E-32,1.22464679914735E-16,
1.));
#1137=DIRECTION('ref_axis',(-2.22044604925031E-16,-1.,1.22464679914735E-16));
#1138=DIRECTION('center_axis',(-2.71926214689378E-32,-1.22464679914735E-16,
-1.));
#1139=DIRECTION('ref_axis',(-2.22044604925031E-16,-1.,1.22464679914735E-16));
#1140=DIRECTION('',(-2.43604851491927E-16,-0.707106781186548,-0.707106781186548));
#1141=DIRECTION('center_axis',(-2.71926214689378E-32,-1.22464679914735E-16,
-1.));
#1142=DIRECTION('ref_axis',(-2.22044604925031E-16,-1.,1.22464679914735E-16));
#1143=DIRECTION('center_axis',(2.71926214689378E-32,1.22464679914735E-16,
1.));
#1144=DIRECTION('ref_axis',(-2.22044604925031E-16,-1.,1.22464679914735E-16));
#1145=DIRECTION('center_axis',(-2.71926214689378E-32,-1.22464679914735E-16,
-1.));
#1146=DIRECTION('ref_axis',(-2.22044604925031E-16,-1.,1.22464679914735E-16));
#1147=DIRECTION('',(-2.43604851491927E-16,-0.707106781186548,-0.707106781186548));
#1148=DIRECTION('center_axis',(-2.71926214689378E-32,-1.22464679914735E-16,
-1.));
#1149=DIRECTION('ref_axis',(-2.22044604925031E-16,-1.,1.22464679914735E-16));
#1150=DIRECTION('center_axis',(2.71926214689378E-32,1.22464679914735E-16,
1.));
#1151=DIRECTION('ref_axis',(-2.22044604925031E-16,-1.,1.22464679914735E-16));
#1152=DIRECTION('center_axis',(-2.71926214689378E-32,-1.22464679914735E-16,
-1.));
#1153=DIRECTION('ref_axis',(-2.22044604925031E-16,-1.,1.22464679914735E-16));
#1154=DIRECTION('',(-2.43604851491927E-16,-0.707106781186548,-0.707106781186548));
#1155=DIRECTION('center_axis',(-2.71926214689378E-32,-1.22464679914735E-16,
-1.));
#1156=DIRECTION('ref_axis',(-2.22044604925031E-16,-1.,1.22464679914735E-16));
#1157=DIRECTION('center_axis',(-2.22044604925031E-16,-1.,1.22464679914735E-16));
#1158=DIRECTION('ref_axis',(1.,-2.22044604925031E-16,0.));
#1159=DIRECTION('',(-1.,2.22044604925031E-16,0.));
#1160=DIRECTION('',(2.71926214689378E-32,1.22464679914735E-16,1.));
#1161=DIRECTION('',(1.,-2.22044604925031E-16,0.));
#1162=DIRECTION('',(2.71926214689378E-32,1.22464679914735E-16,1.));
#1163=DIRECTION('center_axis',(-2.71926214689378E-32,-1.22464679914735E-16,
-1.));
#1164=DIRECTION('ref_axis',(2.22044604925031E-16,1.,-1.22464679914735E-16));
#1165=DIRECTION('',(2.22044604925031E-16,1.,-1.22464679914735E-16));
#1166=DIRECTION('',(1.,-2.22044604925031E-16,0.));
#1167=DIRECTION('',(-2.22044604925031E-16,-1.,1.22464679914735E-16));
#1168=DIRECTION('center_axis',(2.71926214689378E-32,1.22464679914735E-16,
1.));
#1169=DIRECTION('ref_axis',(-2.22044604925031E-16,-1.,1.22464679914735E-16));
#1170=DIRECTION('',(2.22044604925031E-16,1.,-1.22464679914735E-16));
#1171=DIRECTION('',(-2.22044604925031E-16,-1.,1.22464679914735E-16));
#1172=DIRECTION('',(-1.,2.22044604925031E-16,0.));
#1173=DIRECTION('center_axis',(-1.,2.22044604925031E-16,0.));
#1174=DIRECTION('ref_axis',(-2.22044604925031E-16,-1.,1.22464679914735E-16));
#1175=DIRECTION('',(-2.22044604925031E-16,-1.,1.22464679914735E-16));
#1176=DIRECTION('',(2.71926214689378E-32,1.22464679914735E-16,1.));
#1177=DIRECTION('',(-2.22044604925031E-16,-1.,1.22464679914735E-16));
#1178=DIRECTION('center_axis',(2.71926214689378E-32,1.22464679914735E-16,
1.));
#1179=DIRECTION('ref_axis',(-2.22044604925031E-16,-1.,1.22464679914735E-16));
#1180=DIRECTION('',(-1.,2.22044604925031E-16,0.));
#1181=DIRECTION('',(2.22044604925031E-16,1.,-1.22464679914735E-16));
#1182=DIRECTION('',(1.,-2.22044604925031E-16,0.));
#1183=DIRECTION('',(2.22044604925031E-16,1.,-1.22464679914735E-16));
#1184=DIRECTION('',(-1.,2.22044604925031E-16,0.));
#1185=DIRECTION('',(2.22044604925031E-16,1.,-1.22464679914735E-16));
#1186=DIRECTION('',(1.,-2.22044604925031E-16,0.));
#1187=DIRECTION('',(-2.22044604925031E-16,-1.,1.22464679914735E-16));
#1188=DIRECTION('center_axis',(-1.,2.22044604925031E-16,0.));
#1189=DIRECTION('ref_axis',(-2.22044604925031E-16,-1.,1.22464679914735E-16));
#1190=DIRECTION('',(-2.22044604925031E-16,-1.,1.22464679914735E-16));
#1191=DIRECTION('',(2.71926214689378E-32,1.22464679914735E-16,1.));
#1192=DIRECTION('center_axis',(2.22044604925031E-16,1.,-1.22464679914735E-16));
#1193=DIRECTION('ref_axis',(-2.71926214689378E-32,-1.22464679914735E-16,
-1.));
#1194=DIRECTION('center_axis',(-2.22044604925031E-16,-1.,1.22464679914735E-16));
#1195=DIRECTION('ref_axis',(-2.71926214689378E-32,-1.22464679914735E-16,
-1.));
#1196=DIRECTION('',(2.22044604925031E-16,1.,-1.22464679914735E-16));
#1197=DIRECTION('center_axis',(2.22044604925031E-16,1.,-1.22464679914735E-16));
#1198=DIRECTION('ref_axis',(-2.71926214689378E-32,-1.22464679914735E-16,
-1.));
#1199=DIRECTION('',(-2.22044604925031E-16,-1.,1.22464679914735E-16));
#1200=DIRECTION('center_axis',(2.71926214689378E-32,1.22464679914735E-16,
1.));
#1201=DIRECTION('ref_axis',(1.,-2.22044604925031E-16,0.));
#1202=DIRECTION('',(-1.,2.22044604925031E-16,0.));
#1203=DIRECTION('',(2.22044604925031E-16,1.,-1.22464679914735E-16));
#1204=DIRECTION('',(1.,-2.22044604925031E-16,0.));
#1205=DIRECTION('center_axis',(2.71926214689378E-32,1.22464679914735E-16,
1.));
#1206=DIRECTION('ref_axis',(-2.22044604925031E-16,-1.,1.22464679914735E-16));
#1207=DIRECTION('',(-2.22044604925031E-16,-1.,1.22464679914735E-16));
#1208=DIRECTION('',(1.,-2.22044604925031E-16,0.));
#1209=DIRECTION('',(2.22044604925031E-16,1.,-1.22464679914735E-16));
#1210=DIRECTION('',(-1.,2.22044604925031E-16,0.));
#1211=DIRECTION('center_axis',(-1.,2.22044604925031E-16,0.));
#1212=DIRECTION('ref_axis',(-2.22044604925031E-16,-1.,1.22464679914735E-16));
#1213=DIRECTION('',(-2.22044604925031E-16,-1.,1.22464679914735E-16));
#1214=DIRECTION('',(2.71926214689378E-32,1.22464679914735E-16,1.));
#1215=DIRECTION('',(2.71926214689378E-32,1.22464679914735E-16,1.));
#1216=DIRECTION('center_axis',(-2.71926214689378E-32,-1.22464679914735E-16,
-1.));
#1217=DIRECTION('ref_axis',(2.22044604925031E-16,1.,-1.22464679914735E-16));
#1218=DIRECTION('',(1.,-2.22044604925031E-16,0.));
#1219=DIRECTION('',(-1.,2.22044604925031E-16,0.));
#1220=DIRECTION('',(-2.22044604925031E-16,-1.,1.22464679914735E-16));
#1221=DIRECTION('',(-1.,2.22044604925031E-16,0.));
#1222=DIRECTION('',(1.,-2.22044604925031E-16,0.));
#1223=DIRECTION('center_axis',(-2.22044604925031E-16,-1.,1.22464679914735E-16));
#1224=DIRECTION('ref_axis',(2.71926214689378E-32,1.22464679914735E-16,1.));
#1225=DIRECTION('center_axis',(-2.22044604925031E-16,-1.,1.22464679914735E-16));
#1226=DIRECTION('ref_axis',(2.71926214689378E-32,1.22464679914735E-16,1.));
#1227=DIRECTION('',(2.22044604925031E-16,1.,-1.22464679914735E-16));
#1228=DIRECTION('center_axis',(2.22044604925031E-16,1.,-1.22464679914735E-16));
#1229=DIRECTION('ref_axis',(2.71926214689378E-32,1.22464679914735E-16,1.));
#1230=DIRECTION('center_axis',(2.71926214689378E-32,1.22464679914735E-16,
1.));
#1231=DIRECTION('ref_axis',(-1.,2.22044604925031E-16,0.));
#1232=DIRECTION('',(-1.,2.22044604925031E-16,0.));
#1233=DIRECTION('',(2.22044604925031E-16,1.,-1.22464679914735E-16));
#1234=DIRECTION('',(1.,-2.22044604925031E-16,0.));
#1235=DIRECTION('center_axis',(-2.71926214689378E-32,-1.22464679914735E-16,
-1.));
#1236=DIRECTION('ref_axis',(-2.22044604925031E-16,-1.,1.22464679914735E-16));
#1237=DIRECTION('',(-2.71926214689378E-32,-1.22464679914735E-16,-1.));
#1238=DIRECTION('center_axis',(-2.71926214689378E-32,-1.22464679914735E-16,
-1.));
#1239=DIRECTION('ref_axis',(-2.22044604925031E-16,-1.,1.22464679914735E-16));
#1240=DIRECTION('',(-2.71926214689378E-32,-1.22464679914735E-16,-1.));
#1241=DIRECTION('center_axis',(-2.71926214689378E-32,-1.22464679914735E-16,
-1.));
#1242=DIRECTION('ref_axis',(-2.22044604925031E-16,-1.,1.22464679914735E-16));
#1243=DIRECTION('',(-2.71926214689378E-32,-1.22464679914735E-16,-1.));
#1244=DIRECTION('center_axis',(-1.,2.22044604925031E-16,0.));
#1245=DIRECTION('ref_axis',(-2.22044604925031E-16,-1.,1.22464679914735E-16));
#1246=DIRECTION('',(2.71926214689378E-32,1.22464679914735E-16,1.));
#1247=DIRECTION('',(2.71926214689378E-32,1.22464679914735E-16,1.));
#1248=DIRECTION('center_axis',(2.22044604925031E-16,1.,-1.22464679914735E-16));
#1249=DIRECTION('ref_axis',(-1.,2.22044604925031E-16,0.));
#1250=DIRECTION('',(2.71926214689378E-32,1.22464679914735E-16,1.));
#1251=DIRECTION('center_axis',(1.,-2.22044604925031E-16,0.));
#1252=DIRECTION('ref_axis',(2.22044604925031E-16,1.,-1.22464679914735E-16));
#1253=DIRECTION('',(2.71926214689378E-32,1.22464679914735E-16,1.));
#1254=DIRECTION('center_axis',(2.22044604925031E-16,1.,-1.22464679914735E-16));
#1255=DIRECTION('ref_axis',(-1.,2.22044604925031E-16,0.));
#1256=DIRECTION('center_axis',(-2.22044604925031E-16,-1.,1.22464679914735E-16));
#1257=DIRECTION('ref_axis',(1.,-2.22044604925031E-16,0.));
#1258=DIRECTION('center_axis',(2.22044604925031E-16,1.,-1.22464679914735E-16));
#1259=DIRECTION('ref_axis',(-2.71926214689378E-32,-1.22464679914735E-16,
-1.));
#1260=DIRECTION('',(2.71926214689378E-32,1.22464679914735E-16,1.));
#1261=DIRECTION('center_axis',(1.,-2.22044604925031E-16,0.));
#1262=DIRECTION('ref_axis',(2.22044604925031E-16,1.,-1.22464679914735E-16));
#1263=DIRECTION('',(2.71926214689378E-32,1.22464679914735E-16,1.));
#1264=DIRECTION('center_axis',(-2.22044604925031E-16,-1.,1.22464679914735E-16));
#1265=DIRECTION('ref_axis',(2.71926214689378E-32,1.22464679914735E-16,1.));
#1266=DIRECTION('center_axis',(-2.22044604925031E-16,-1.,1.22464679914735E-16));
#1267=DIRECTION('ref_axis',(2.71926214689378E-32,1.22464679914735E-16,1.));
#1268=DIRECTION('center_axis',(2.22044604925031E-16,1.,-1.22464679914735E-16));
#1269=DIRECTION('ref_axis',(2.71926214689378E-32,1.22464679914735E-16,1.));
#1270=DIRECTION('center_axis',(2.22044604925031E-16,1.,-1.22464679914735E-16));
#1271=DIRECTION('ref_axis',(-1.,2.22044604925031E-16,0.));
#1272=DIRECTION('',(2.71926214689378E-32,1.22464679914735E-16,1.));
#1273=DIRECTION('center_axis',(1.,-2.22044604925031E-16,0.));
#1274=DIRECTION('ref_axis',(2.22044604925031E-16,1.,-1.22464679914735E-16));
#1275=DIRECTION('',(2.71926214689378E-32,1.22464679914735E-16,1.));
#1276=DIRECTION('center_axis',(-2.22044604925031E-16,-1.,1.22464679914735E-16));
#1277=DIRECTION('ref_axis',(1.,-2.22044604925031E-16,0.));
#1278=DIRECTION('',(2.71926214689378E-32,1.22464679914735E-16,1.));
#1279=DIRECTION('center_axis',(1.,-2.22044604925031E-16,0.));
#1280=DIRECTION('ref_axis',(2.22044604925031E-16,1.,-1.22464679914735E-16));
#1281=DIRECTION('',(2.71926214689378E-32,1.22464679914735E-16,1.));
#1282=DIRECTION('center_axis',(2.22044604925031E-16,1.,-1.22464679914735E-16));
#1283=DIRECTION('ref_axis',(-1.,2.22044604925031E-16,0.));
#1284=DIRECTION('',(2.71926214689378E-32,1.22464679914735E-16,1.));
#1285=DIRECTION('center_axis',(1.,-2.22044604925031E-16,0.));
#1286=DIRECTION('ref_axis',(2.22044604925031E-16,1.,-1.22464679914735E-16));
#1287=DIRECTION('',(2.71926214689378E-32,1.22464679914735E-16,1.));
#1288=DIRECTION('center_axis',(-2.22044604925031E-16,-1.,1.22464679914735E-16));
#1289=DIRECTION('ref_axis',(1.,-2.22044604925031E-16,0.));
#1290=DIRECTION('center_axis',(-2.22044604925031E-16,-1.,1.22464679914735E-16));
#1291=DIRECTION('ref_axis',(-2.71926214689378E-32,-1.22464679914735E-16,
-1.));
#1292=DIRECTION('center_axis',(2.22044604925031E-16,1.,-1.22464679914735E-16));
#1293=DIRECTION('ref_axis',(-2.71926214689378E-32,-1.22464679914735E-16,
-1.));
#1294=DIRECTION('center_axis',(2.22044604925031E-16,1.,-1.22464679914735E-16));
#1295=DIRECTION('ref_axis',(-1.,2.22044604925031E-16,0.));
#1296=CARTESIAN_POINT('',(0.,0.,0.));
#1297=CARTESIAN_POINT('Origin',(27.7593466900366,54.1318350873336,-0.00139682078359016));
#1298=CARTESIAN_POINT('',(57.7593466900366,111.131835087334,-0.00139682078359016));
#1299=CARTESIAN_POINT('',(17.1722065655726,111.131835087334,-0.00139682078359016));
#1300=CARTESIAN_POINT('',(57.7593466900366,111.131835087334,-0.00139682078359016));
#1301=CARTESIAN_POINT('',(57.7593466900366,-2.86816491266642,-0.00139682078358128));
#1302=CARTESIAN_POINT('',(57.7593466900366,-2.86816491266642,-0.00139682078358128));
#1303=CARTESIAN_POINT('',(17.1722065655726,-2.86816491266638,-0.00139682078358128));
#1304=CARTESIAN_POINT('',(-2.24065330996339,-2.86816491266638,-0.00139682078358128));
#1305=CARTESIAN_POINT('',(17.1722065655726,7.08183508733359,-0.00139682078358128));
#1306=CARTESIAN_POINT('',(17.1722065655726,-2.86916048648781,-0.00139682078358128));
#1307=CARTESIAN_POINT('',(48.5593466900366,7.08183508733359,-0.00139682078358128));
#1308=CARTESIAN_POINT('',(17.4093466900366,7.08183508733359,-0.00139682078358128));
#1309=CARTESIAN_POINT('',(48.5593466900366,46.0318350873336,-0.00139682078359016));
#1310=CARTESIAN_POINT('',(48.5593466900366,30.6068350873336,-0.00139682078358128));
#1311=CARTESIAN_POINT('',(9.25934669003659,46.0318350873336,-0.00139682078359016));
#1312=CARTESIAN_POINT('',(38.1593466900366,46.0318350873336,-0.00139682078359016));
#1313=CARTESIAN_POINT('',(9.25934669003659,48.3318350873336,-0.00139682078359016));
#1314=CARTESIAN_POINT('',(9.25934669003659,50.0818350873336,-0.00139682078359016));
#1315=CARTESIAN_POINT('',(18.4593466900366,48.3318350873336,-0.00139682078359016));
#1316=CARTESIAN_POINT('',(18.5093466900366,48.3318350873336,-0.00139682078359016));
#1317=CARTESIAN_POINT('',(18.4593466900366,102.481835087334,-0.00139682078359016));
#1318=CARTESIAN_POINT('',(18.4593466900366,51.2318350873336,-0.00139682078359016));
#1319=CARTESIAN_POINT('',(17.1722065655726,102.481835087334,-0.00139682078359016));
#1320=CARTESIAN_POINT('',(23.1093466900366,102.481835087334,-0.00139682078359016));
#1321=CARTESIAN_POINT('',(17.1722065655726,111.130839513512,-0.00139682078359016));
#1322=CARTESIAN_POINT('',(48.5593466900366,102.481835087334,-0.00139682078359016));
#1323=CARTESIAN_POINT('',(20.8593466900366,102.481835087334,-0.00139682078359016));
#1324=CARTESIAN_POINT('',(38.1593466900366,102.481835087334,-0.00139682078359016));
#1325=CARTESIAN_POINT('',(20.8593466900366,48.3318350873336,-0.00139682078359016));
#1326=CARTESIAN_POINT('',(20.8593466900366,78.3068350873336,-0.00139682078359016));
#1327=CARTESIAN_POINT('',(48.5593466900366,48.3318350873336,-0.00139682078359016));
#1328=CARTESIAN_POINT('',(48.5593466900366,48.3318350873336,-0.00139682078359016));
#1329=CARTESIAN_POINT('',(48.5593466900366,7.08183508733359,-0.00139682078358128));
#1330=CARTESIAN_POINT('',(52.0101347292018,51.2808395135121,-0.00139682078359016));
#1331=CARTESIAN_POINT('Origin',(52.0101347292018,50.0308395135121,-0.00139682078359016));
#1332=CARTESIAN_POINT('',(52.0101347292018,107.280839513512,-0.00139682078359016));
#1333=CARTESIAN_POINT('Origin',(52.0101347292018,106.030839513512,-0.00139682078359016));
#1334=CARTESIAN_POINT('',(52.0101347292018,4.78083951351216,-0.00139682078358128));
#1335=CARTESIAN_POINT('Origin',(52.0101347292018,3.53083951351216,-0.00139682078358128));
#1336=CARTESIAN_POINT('Origin',(3.51013472920179,50.0308395135122,5.42360317921641));
#1337=CARTESIAN_POINT('',(3.51013472920179,51.8308395135122,5.39860317921641));
#1338=CARTESIAN_POINT('Origin',(3.51013472920179,50.0308395135122,5.39860317921641));
#1339=CARTESIAN_POINT('',(3.5101347292018,51.2808395135122,4.84860317921641));
#1340=CARTESIAN_POINT('',(3.5101347292018,51.8558395135122,5.42360317921641));
#1341=CARTESIAN_POINT('Origin',(3.51013472920179,50.0308395135122,4.84860317921641));
#1342=CARTESIAN_POINT('Origin',(3.51013472920179,3.5308395135122,5.42360317921642));
#1343=CARTESIAN_POINT('',(3.51013472920179,5.3308395135122,5.39860317921642));
#1344=CARTESIAN_POINT('Origin',(3.51013472920179,3.5308395135122,5.39860317921642));
#1345=CARTESIAN_POINT('',(3.5101347292018,4.7808395135122,4.84860317921642));
#1346=CARTESIAN_POINT('',(3.5101347292018,5.3558395135122,5.42360317921642));
#1347=CARTESIAN_POINT('Origin',(3.51013472920179,3.5308395135122,4.84860317921642));
#1348=CARTESIAN_POINT('Origin',(3.51013472920179,106.030839513512,5.42360317921641));
#1349=CARTESIAN_POINT('',(3.51013472920179,107.830839513512,5.39860317921641));
#1350=CARTESIAN_POINT('Origin',(3.51013472920179,106.030839513512,5.39860317921641));
#1351=CARTESIAN_POINT('',(3.5101347292018,107.280839513512,4.84860317921641));
#1352=CARTESIAN_POINT('',(3.5101347292018,107.855839513512,5.42360317921641));
#1353=CARTESIAN_POINT('Origin',(3.51013472920179,106.030839513512,4.84860317921641));
#1354=CARTESIAN_POINT('Origin',(55.7593466900366,109.131835087334,5.99860317921642));
#1355=CARTESIAN_POINT('',(55.7593466900366,109.131835087334,5.99860317921642));
#1356=CARTESIAN_POINT('',(55.7593466900366,-0.868164912666423,5.99860317921642));
#1357=CARTESIAN_POINT('',(55.7593466900366,81.6318350873336,5.99860317921642));
#1358=CARTESIAN_POINT('',(55.7593466900366,109.131835087334,5.39860317921641));
#1359=CARTESIAN_POINT('',(55.7593466900366,109.131835087334,5.99860317921642));
#1360=CARTESIAN_POINT('',(55.7593466900366,-0.868164912666423,5.39860317921642));
#1361=CARTESIAN_POINT('',(55.7593466900366,109.131835087334,5.39860317921641));
#1362=CARTESIAN_POINT('',(55.7593466900366,-0.868164912666423,5.99860317921642));
#1363=CARTESIAN_POINT('Origin',(-0.240653309963363,109.131835087334,5.99860317921642));
#1364=CARTESIAN_POINT('',(-0.240653309963363,109.131835087334,5.99860317921642));
#1365=CARTESIAN_POINT('',(13.7593466900366,109.131835087334,5.99860317921642));
#1366=CARTESIAN_POINT('',(-0.240653309963363,109.131835087334,5.39860317921641));
#1367=CARTESIAN_POINT('',(-0.240653309963363,109.131835087334,5.99860317921642));
#1368=CARTESIAN_POINT('',(-0.240653309963363,109.131835087334,5.39860317921641));
#1369=CARTESIAN_POINT('Origin',(-0.240653309963363,-0.868164912666387,5.99860317921642));
#1370=CARTESIAN_POINT('',(-0.240653309963363,-0.868164912666387,5.99860317921642));
#1371=CARTESIAN_POINT('',(-0.240653309963363,26.6318350873336,5.99860317921642));
#1372=CARTESIAN_POINT('',(-0.240653309963363,-0.868164912666387,5.39860317921642));
#1373=CARTESIAN_POINT('',(-0.240653309963363,-0.868164912666387,5.99860317921642));
#1374=CARTESIAN_POINT('',(-0.240653309963363,-0.868164912666387,5.39860317921642));
#1375=CARTESIAN_POINT('Origin',(55.7593466900366,-0.868164912666423,5.99860317921642));
#1376=CARTESIAN_POINT('',(41.7593466900366,-0.868164912666387,5.99860317921642));
#1377=CARTESIAN_POINT('',(55.7593466900366,-0.868164912666423,5.39860317921642));
#1378=CARTESIAN_POINT('Origin',(3.51013472920179,50.0308395135122,0.998603179216406));
#1379=CARTESIAN_POINT('',(3.51013472920179,51.2808395135122,-0.00139682078359016));
#1380=CARTESIAN_POINT('',(3.5101347292018,51.2808395135122,0.998603179216406));
#1381=CARTESIAN_POINT('Origin',(3.51013472920179,50.0308395135122,-0.00139682078359016));
#1382=CARTESIAN_POINT('Origin',(3.51013472920179,3.5308395135122,0.998603179216415));
#1383=CARTESIAN_POINT('',(3.51013472920179,4.7808395135122,-0.00139682078358128));
#1384=CARTESIAN_POINT('',(3.5101347292018,4.7808395135122,0.998603179216415));
#1385=CARTESIAN_POINT('Origin',(3.51013472920179,3.5308395135122,-0.00139682078358128));
#1386=CARTESIAN_POINT('Origin',(3.51013472920179,106.030839513512,0.998603179216406));
#1387=CARTESIAN_POINT('',(3.51013472920179,107.280839513512,-0.00139682078359016));
#1388=CARTESIAN_POINT('',(3.5101347292018,107.280839513512,0.998603179216406));
#1389=CARTESIAN_POINT('Origin',(3.51013472920179,106.030839513512,-0.00139682078359016));
#1390=CARTESIAN_POINT('Origin',(45.5093466900366,21.4318350873336,-0.00139682078358128));
#1391=CARTESIAN_POINT('',(45.5093466900366,21.4318350873336,-0.00139682078358128));
#1392=CARTESIAN_POINT('',(7.05934669003661,21.4318350873336,-0.00139682078358128));
#1393=CARTESIAN_POINT('',(36.6343466900366,21.4318350873336,-0.00139682078358128));
#1394=CARTESIAN_POINT('',(45.5093466900366,21.4318350873336,4.59860317921642));
#1395=CARTESIAN_POINT('',(45.5093466900366,21.4318350873336,-0.00139682078358128));
#1396=CARTESIAN_POINT('',(7.05934669003661,21.4318350873336,4.59860317921642));
#1397=CARTESIAN_POINT('',(7.05934669003661,21.4318350873336,4.59860317921642));
#1398=CARTESIAN_POINT('',(7.05934669003661,21.4318350873336,-0.00139682078358128));
#1399=CARTESIAN_POINT('Origin',(45.5093466900366,23.9318350873336,-0.00139682078358128));
#1400=CARTESIAN_POINT('',(45.5093466900366,23.9318350873336,-0.00139682078358128));
#1401=CARTESIAN_POINT('',(45.5093466900366,39.0318350873336,-0.00139682078358128));
#1402=CARTESIAN_POINT('',(45.5093466900366,23.9318350873336,4.59860317921642));
#1403=CARTESIAN_POINT('',(45.5093466900366,23.9318350873336,-0.00139682078358128));
#1404=CARTESIAN_POINT('',(45.5093466900366,21.4318350873336,4.59860317921642));
#1405=CARTESIAN_POINT('Origin',(7.05934669003661,23.9318350873336,-0.00139682078358128));
#1406=CARTESIAN_POINT('',(7.05934669003661,23.9318350873336,-0.00139682078358128));
#1407=CARTESIAN_POINT('',(17.4093466900366,23.9318350873336,-0.00139682078358128));
#1408=CARTESIAN_POINT('',(7.05934669003661,23.9318350873336,4.59860317921642));
#1409=CARTESIAN_POINT('',(7.05934669003661,23.9318350873336,-0.00139682078358128));
#1410=CARTESIAN_POINT('',(45.5093466900366,23.9318350873336,4.59860317921642));
#1411=CARTESIAN_POINT('Origin',(52.0101347292018,3.53083951351216,5.42360317921642));
#1412=CARTESIAN_POINT('',(52.0101347292018,5.33083951351216,5.39860317921642));
#1413=CARTESIAN_POINT('Origin',(52.0101347292018,3.53083951351216,5.39860317921642));
#1414=CARTESIAN_POINT('',(52.0101347292018,4.78083951351216,4.84860317921642));
#1415=CARTESIAN_POINT('',(52.0101347292018,5.35583951351216,5.42360317921642));
#1416=CARTESIAN_POINT('Origin',(52.0101347292018,3.53083951351216,4.84860317921642));
#1417=CARTESIAN_POINT('Origin',(52.0101347292018,106.030839513512,5.42360317921641));
#1418=CARTESIAN_POINT('',(52.0101347292018,107.830839513512,5.39860317921641));
#1419=CARTESIAN_POINT('Origin',(52.0101347292018,106.030839513512,5.39860317921641));
#1420=CARTESIAN_POINT('',(52.0101347292018,107.280839513512,4.84860317921641));
#1421=CARTESIAN_POINT('',(52.0101347292018,107.855839513512,5.42360317921641));
#1422=CARTESIAN_POINT('Origin',(52.0101347292018,106.030839513512,4.84860317921641));
#1423=CARTESIAN_POINT('Origin',(52.0101347292018,50.0308395135121,5.42360317921641));
#1424=CARTESIAN_POINT('',(52.0101347292018,51.8308395135121,5.39860317921641));
#1425=CARTESIAN_POINT('Origin',(52.0101347292018,50.0308395135121,5.39860317921641));
#1426=CARTESIAN_POINT('',(52.0101347292018,51.2808395135121,4.84860317921641));
#1427=CARTESIAN_POINT('',(52.0101347292018,51.8558395135122,5.42360317921641));
#1428=CARTESIAN_POINT('Origin',(52.0101347292018,50.0308395135121,4.84860317921641));
#1429=CARTESIAN_POINT('Origin',(20.8593466900366,68.3318350873336,-0.00139682078359016));
#1430=CARTESIAN_POINT('',(48.5593466900366,68.3318350873336,5.39860317921641));
#1431=CARTESIAN_POINT('',(20.8593466900366,68.3318350873336,5.39860317921641));
#1432=CARTESIAN_POINT('',(24.3093466900366,68.3318350873336,5.39860317921641));
#1433=CARTESIAN_POINT('',(20.8593466900366,68.3318350873336,4.59860317921641));
#1434=CARTESIAN_POINT('',(20.8593466900366,68.3318350873336,-0.00139682078359016));
#1435=CARTESIAN_POINT('',(48.5593466900366,68.3318350873336,4.59860317921641));
#1436=CARTESIAN_POINT('',(27.7843466900366,68.3318350873336,4.59860317921641));
#1437=CARTESIAN_POINT('',(48.5593466900366,68.3318350873336,-0.00139682078359016));
#1438=CARTESIAN_POINT('Origin',(27.7593466900366,54.1318350873336,5.39860317921641));
#1439=CARTESIAN_POINT('',(48.5593466900366,48.3318350873336,5.39860317921641));
#1440=CARTESIAN_POINT('',(48.5593466900366,61.2318350873336,5.39860317921641));
#1441=CARTESIAN_POINT('',(20.8593466900366,48.3318350873336,5.39860317921641));
#1442=CARTESIAN_POINT('',(38.1593466900366,48.3318350873336,5.39860317921641));
#1443=CARTESIAN_POINT('',(20.8593466900366,51.2318350873336,5.39860317921641));
#1444=CARTESIAN_POINT('Origin',(34.7093466900366,85.4068350873336,4.59860317921641));
#1445=CARTESIAN_POINT('',(48.5593466900366,102.481835087334,4.59860317921641));
#1446=CARTESIAN_POINT('',(48.5593466900366,7.08183508733359,4.59860317921642));
#1447=CARTESIAN_POINT('',(20.8593466900366,102.481835087334,4.59860317921641));
#1448=CARTESIAN_POINT('',(20.8593466900366,48.3318350873336,4.59860317921641));
#1449=CARTESIAN_POINT('',(48.5593466900366,102.481835087334,4.59860317921641));
#1450=CARTESIAN_POINT('Origin',(7.05934669003661,102.481835087334,-0.00139682078359016));
#1451=CARTESIAN_POINT('',(7.05934669003661,102.481835087334,-0.00139682078359016));
#1452=CARTESIAN_POINT('',(7.05934669003661,78.3068350873336,-0.00139682078359016));
#1453=CARTESIAN_POINT('',(7.05934669003661,102.481835087334,4.59860317921641));
#1454=CARTESIAN_POINT('',(7.05934669003661,102.481835087334,-0.00139682078359016));
#1455=CARTESIAN_POINT('',(7.05934669003661,102.481835087334,4.59860317921641));
#1456=CARTESIAN_POINT('Origin',(27.8093466900366,54.7818350873336,4.59860317921641));
#1457=CARTESIAN_POINT('',(18.4593466900366,102.481835087334,4.59860317921641));
#1458=CARTESIAN_POINT('',(48.5593466900366,102.481835087334,4.59860317921641));
#1459=CARTESIAN_POINT('',(18.4593466900366,48.3318350873336,4.59860317921641));
#1460=CARTESIAN_POINT('',(18.4593466900366,102.481835087334,4.59860317921641));
#1461=CARTESIAN_POINT('',(9.25934669003659,48.3318350873336,4.59860317921641));
#1462=CARTESIAN_POINT('',(48.5593466900366,48.3318350873336,4.59860317921641));
#1463=CARTESIAN_POINT('',(9.25934669003659,46.0318350873336,4.59860317921641));
#1464=CARTESIAN_POINT('',(9.25934669003659,48.3318350873336,4.59860317921641));
#1465=CARTESIAN_POINT('',(48.5593466900366,46.0318350873336,4.59860317921641));
#1466=CARTESIAN_POINT('',(9.25934669003659,46.0318350873336,4.59860317921641));
#1467=CARTESIAN_POINT('',(48.5593466900366,7.08183508733359,4.59860317921642));
#1468=CARTESIAN_POINT('',(48.5593466900366,7.08183508733359,4.59860317921642));
#1469=CARTESIAN_POINT('',(7.05934669003661,7.08183508733359,4.59860317921642));
#1470=CARTESIAN_POINT('',(7.05934669003661,7.08183508733359,4.59860317921642));
#1471=CARTESIAN_POINT('',(7.05934669003661,102.481835087334,4.59860317921641));
#1472=CARTESIAN_POINT('Origin',(7.05934669003661,21.4318350873336,-0.00139682078358128));
#1473=CARTESIAN_POINT('',(7.05934669003661,7.08183508733359,-0.00139682078358128));
#1474=CARTESIAN_POINT('',(7.05934669003661,37.7818350873336,-0.00139682078358128));
#1475=CARTESIAN_POINT('',(7.05934669003661,7.08183508733359,-0.00139682078358128));
#1476=CARTESIAN_POINT('Origin',(13.9996681497296,-2.86916048648781,0.123603179216421));
#1477=CARTESIAN_POINT('',(12.5027964117373,7.08183508733359,2.92360317921642));
#1478=CARTESIAN_POINT('',(10.8271297338865,7.08183508733359,-0.00139682078358128));
#1479=CARTESIAN_POINT('Origin',(13.9996681497296,7.08183508733359,0.123603179216421));
#1480=CARTESIAN_POINT('',(12.5027964117373,-2.86816491266638,2.92360317921642));
#1481=CARTESIAN_POINT('',(12.5027964117373,-2.86916048648781,2.92360317921642));
#1482=CARTESIAN_POINT('',(10.8271297338865,-2.86816491266638,-0.00139682078358128));
#1483=CARTESIAN_POINT('Origin',(13.9996681497296,-2.86816491266638,0.123603179216421));
#1484=CARTESIAN_POINT('',(10.8271297338865,-2.86916048648781,-0.00139682078358128));
#1485=CARTESIAN_POINT('Origin',(12.5027964117373,-2.86916048648781,2.92360317921642));
#1486=CARTESIAN_POINT('',(15.4965398877218,7.08183508733359,2.92360317921642));
#1487=CARTESIAN_POINT('',(9.78107155088694,7.08183508733359,2.92360317921642));
#1488=CARTESIAN_POINT('',(15.4965398877218,-2.86816491266638,2.92360317921642));
#1489=CARTESIAN_POINT('',(15.4965398877218,-2.86916048648781,2.92360317921642));
#1490=CARTESIAN_POINT('',(5.1310715508869,-2.86816491266638,2.92360317921642));
#1491=CARTESIAN_POINT('Origin',(27.7593466900366,54.1318350873336,5.99860317921642));
#1492=CARTESIAN_POINT('',(-2.24065330996339,111.131835087334,5.99860317921642));
#1493=CARTESIAN_POINT('',(-2.24065330996339,-2.86816491266638,5.99860317921642));
#1494=CARTESIAN_POINT('',(-2.24065330996339,111.131835087334,5.99860317921642));
#1495=CARTESIAN_POINT('',(57.7593466900366,-2.86816491266642,5.99860317921642));
#1496=CARTESIAN_POINT('',(-2.24065330996339,-2.86816491266638,5.99860317921642));
#1497=CARTESIAN_POINT('',(57.7593466900366,111.131835087334,5.99860317921642));
#1498=CARTESIAN_POINT('',(57.7593466900366,-2.86816491266642,5.99860317921642));
#1499=CARTESIAN_POINT('',(57.7593466900366,111.131835087334,5.99860317921642));
#1500=CARTESIAN_POINT('Origin',(-2.24065330996339,111.131835087334,-0.00139682078359016));
#1501=CARTESIAN_POINT('',(-2.24065330996339,111.131835087334,-0.00139682078359016));
#1502=CARTESIAN_POINT('',(-2.24065330996339,-2.86816491266638,-0.00139682078358128));
#1503=CARTESIAN_POINT('',(-2.24065330996339,111.131835087334,-0.00139682078359016));
#1504=CARTESIAN_POINT('',(-2.24065330996339,-2.86816491266638,-0.00139682078358128));
#1505=CARTESIAN_POINT('',(-2.24065330996339,111.131835087334,-0.00139682078359016));
#1506=CARTESIAN_POINT('Origin',(27.7593466900366,54.1318350873336,-0.00139682078359016));
#1507=CARTESIAN_POINT('',(-2.24065330996339,-2.86816491266638,-0.00139682078358128));
#1508=CARTESIAN_POINT('',(10.8271297338865,111.131835087334,-0.00139682078359016));
#1509=CARTESIAN_POINT('',(57.7593466900366,111.131835087334,-0.00139682078359016));
#1510=CARTESIAN_POINT('',(10.8271297338865,102.481835087334,-0.00139682078359016));
#1511=CARTESIAN_POINT('',(10.8271297338865,111.130839513512,-0.00139682078359016));
#1512=CARTESIAN_POINT('',(23.1093466900366,102.481835087334,-0.00139682078359016));
#1513=CARTESIAN_POINT('',(17.4093466900366,7.08183508733359,-0.00139682078358128));
#1514=CARTESIAN_POINT('Origin',(13.9996681497296,111.130839513512,0.123603179216412));
#1515=CARTESIAN_POINT('',(12.5027964117373,111.131835087334,2.92360317921641));
#1516=CARTESIAN_POINT('Origin',(13.9996681497296,111.131835087334,0.123603179216412));
#1517=CARTESIAN_POINT('',(12.5027964117373,102.481835087334,2.92360317921641));
#1518=CARTESIAN_POINT('',(12.5027964117373,111.130839513512,2.92360317921641));
#1519=CARTESIAN_POINT('Origin',(13.9996681497296,102.481835087334,0.123603179216412));
#1520=CARTESIAN_POINT('Origin',(15.4965398877218,111.130839513512,2.92360317921641));
#1521=CARTESIAN_POINT('',(15.4965398877218,111.131835087334,2.92360317921641));
#1522=CARTESIAN_POINT('',(36.6279432888792,111.131835087334,2.92360317921641));
#1523=CARTESIAN_POINT('',(15.4965398877218,102.481835087334,2.92360317921641));
#1524=CARTESIAN_POINT('',(15.4965398877218,111.130839513512,2.92360317921641));
#1525=CARTESIAN_POINT('',(16.9779432888792,102.481835087334,2.92360317921641));
#1526=CARTESIAN_POINT('Origin',(52.0101347292018,3.53083951351216,0.998603179216415));
#1527=CARTESIAN_POINT('',(52.0101347292018,4.78083951351216,0.998603179216415));
#1528=CARTESIAN_POINT('Origin',(52.0101347292018,106.030839513512,0.998603179216406));
#1529=CARTESIAN_POINT('',(52.0101347292018,107.280839513512,0.998603179216406));
#1530=CARTESIAN_POINT('Origin',(52.0101347292018,50.0308395135121,0.998603179216406));
#1531=CARTESIAN_POINT('',(52.0101347292018,51.2808395135121,0.998603179216406));
#1532=CARTESIAN_POINT('Origin',(48.5593466900366,68.3318350873336,-0.00139682078359016));
#1533=CARTESIAN_POINT('',(48.5593466900366,102.481835087334,-0.00139682078359016));
#1534=CARTESIAN_POINT('',(48.5593466900366,48.3318350873336,-0.00139682078359016));
#1535=CARTESIAN_POINT('Origin',(48.5593466900366,48.3318350873336,-0.00139682078359016));
#1536=CARTESIAN_POINT('',(20.8593466900366,48.3318350873336,-0.00139682078359016));
#1537=CARTESIAN_POINT('Origin',(20.8593466900366,48.3318350873336,-0.00139682078359016));
#1538=CARTESIAN_POINT('',(20.8593466900366,102.481835087334,-0.00139682078359016));
#1539=CARTESIAN_POINT('Origin',(48.5593466900366,102.481835087334,-0.00139682078359016));
#1540=CARTESIAN_POINT('Origin',(-2.24065330996339,-2.86816491266638,-0.00139682078358128));
#1541=CARTESIAN_POINT('Origin',(13.9996681497296,-2.86816491266638,0.123603179216421));
#1542=CARTESIAN_POINT('',(57.7593466900366,-2.86816491266642,-0.00139682078358128));
#1543=CARTESIAN_POINT('Origin',(57.7593466900366,-2.86816491266642,-0.00139682078358128));
#1544=CARTESIAN_POINT('',(57.7593466900366,111.131835087334,-0.00139682078359016));
#1545=CARTESIAN_POINT('Origin',(13.9996681497296,111.130839513512,0.123603179216412));
#1546=CARTESIAN_POINT('Origin',(13.9996681497296,111.131835087334,0.123603179216412));
#1547=CARTESIAN_POINT('Origin',(13.9996681497296,102.481835087334,0.123603179216412));
#1548=CARTESIAN_POINT('Origin',(18.4593466900366,102.481835087334,-0.00139682078359016));
#1549=CARTESIAN_POINT('',(18.4593466900366,102.481835087334,-0.00139682078359016));
#1550=CARTESIAN_POINT('Origin',(18.4593466900366,48.3318350873336,-0.00139682078359016));
#1551=CARTESIAN_POINT('',(18.4593466900366,48.3318350873336,-0.00139682078359016));
#1552=CARTESIAN_POINT('Origin',(9.25934669003659,48.3318350873336,-0.00139682078359016));
#1553=CARTESIAN_POINT('',(9.25934669003659,48.3318350873336,-0.00139682078359016));
#1554=CARTESIAN_POINT('Origin',(9.25934669003659,46.0318350873336,-0.00139682078359016));
#1555=CARTESIAN_POINT('',(9.25934669003659,46.0318350873336,-0.00139682078359016));
#1556=CARTESIAN_POINT('Origin',(48.5593466900366,46.0318350873336,-0.00139682078359016));
#1557=CARTESIAN_POINT('',(48.5593466900366,46.0318350873336,-0.00139682078359016));
#1558=CARTESIAN_POINT('Origin',(48.5593466900366,7.08183508733359,-0.00139682078358128));
#1559=CARTESIAN_POINT('',(48.5593466900366,7.08183508733359,-0.00139682078358128));
#1560=CARTESIAN_POINT('Origin',(7.05934669003661,7.08183508733359,-0.00139682078358128));
#1561=CARTESIAN_POINT('Origin',(13.9996681497296,7.08183508733359,0.123603179216421));
#1562=CARTESIAN_POINT('Origin',(13.9996681497296,-2.86916048648781,0.123603179216421));
#1563=CARTESIAN_POINT('Origin',(57.7593466900366,111.131835087334,-0.00139682078359016));
#1564=UNCERTAINTY_MEASURE_WITH_UNIT(LENGTH_MEASURE(0.01),#1568,
'DISTANCE_ACCURACY_VALUE',
'Maximum model space distance between geometric entities at asserted c
onnectivities');
#1565=UNCERTAINTY_MEASURE_WITH_UNIT(LENGTH_MEASURE(0.01),#1568,
'DISTANCE_ACCURACY_VALUE',
'Maximum model space distance between geometric entities at asserted c
onnectivities');
#1566=(
GEOMETRIC_REPRESENTATION_CONTEXT(3)
GLOBAL_UNCERTAINTY_ASSIGNED_CONTEXT((#1564))
GLOBAL_UNIT_ASSIGNED_CONTEXT((#1568,#1569,#1570))
REPRESENTATION_CONTEXT('','3D')
);
#1567=(
GEOMETRIC_REPRESENTATION_CONTEXT(3)
GLOBAL_UNCERTAINTY_ASSIGNED_CONTEXT((#1565))
GLOBAL_UNIT_ASSIGNED_CONTEXT((#1568,#1569,#1570))
REPRESENTATION_CONTEXT('','3D')
);
#1568=(
LENGTH_UNIT()
NAMED_UNIT(*)
SI_UNIT(.MILLI.,.METRE.)
);
#1569=(
NAMED_UNIT(*)
PLANE_ANGLE_UNIT()
SI_UNIT($,.RADIAN.)
);
#1570=(
NAMED_UNIT(*)
SI_UNIT($,.STERADIAN.)
SOLID_ANGLE_UNIT()
);
#1571=SHAPE_DEFINITION_REPRESENTATION(#1572,#1573);
#1572=PRODUCT_DEFINITION_SHAPE('',$,#1575);
#1573=SHAPE_REPRESENTATION('',(#962),#1566);
#1574=PRODUCT_DEFINITION_CONTEXT('part definition',#1579,'design');
#1575=PRODUCT_DEFINITION('22GHzDsg_R3.0_no_seperate_usb_flap',
'22GHzDsg_R3.0_no_seperate_usb_flap v2',#1576,#1574);
#1576=PRODUCT_DEFINITION_FORMATION('',$,#1581);
#1577=PRODUCT_RELATED_PRODUCT_CATEGORY(
'22GHzDsg_R3.0_no_seperate_usb_flap v2',
'22GHzDsg_R3.0_no_seperate_usb_flap v2',(#1581));
#1578=APPLICATION_PROTOCOL_DEFINITION('international standard',
'automotive_design',2009,#1579);
#1579=APPLICATION_CONTEXT(
'Core Data for Automotive Mechanical Design Process');
#1580=PRODUCT_CONTEXT('part definition',#1579,'mechanical');
#1581=PRODUCT('22GHzDsg_R3.0_no_seperate_usb_flap',
'22GHzDsg_R3.0_no_seperate_usb_flap v2',$,(#1580));
#1582=PRESENTATION_STYLE_ASSIGNMENT((#1583));
#1583=SURFACE_STYLE_USAGE(.BOTH.,#1584);
#1584=SURFACE_SIDE_STYLE('',(#1585));
#1585=SURFACE_STYLE_FILL_AREA(#1586);
#1586=FILL_AREA_STYLE('Steel - Satin',(#1587));
#1587=FILL_AREA_STYLE_COLOUR('Steel - Satin',#1588);
#1588=COLOUR_RGB('Steel - Satin',0.627450980392157,0.627450980392157,0.627450980392157);
ENDSEC;
END-ISO-10303-21;
